<?xml version="1.0" encoding="UTF-8"?>
<svg version="1.1" xmlns="http://www.w3.org/2000/svg" width="1024" height="1024">
<path d="M0 0 C337.92 0 675.84 0 1024 0 C1024 337.92 1024 675.84 1024 1024 C686.08 1024 348.16 1024 0 1024 C0 686.08 0 348.16 0 0 Z " fill="#FCFCFC" transform="translate(0,0)"/>
<path d="M0 0 C5.44026366 -0.02502598 10.88049259 -0.0430116 16.32080078 -0.05493164 C18.16520777 -0.05990958 20.00961093 -0.06669434 21.85400391 -0.07543945 C36.75852506 -0.14425446 51.19174342 0.18880594 65.875 3.0625 C66.86113281 3.24876953 67.84726562 3.43503906 68.86328125 3.62695312 C71.24362851 4.07760139 73.6223714 4.53526113 76 5 C76 5.66 76 6.32 76 7 C76.60730957 7.10594482 77.21461914 7.21188965 77.84033203 7.32104492 C84.07840277 8.47892765 89.91385823 10.15770867 95.875 12.3125 C96.74342529 12.62082764 97.61185059 12.92915527 98.5065918 13.24682617 C104.2853809 15.3197872 109.94805661 17.57218389 115.58203125 20.01171875 C117.71496414 20.88349908 119.77273018 21.55067256 122 22.125 C124.97809643 22.99361146 126.770471 23.85965216 129 26 C129 26.66 129 27.32 129 28 C129.70253906 28.25136719 130.40507812 28.50273437 131.12890625 28.76171875 C137.80072772 31.63922543 144.05982176 36.20906794 149.5625 40.9375 C151.8974807 43.17215505 151.8974807 43.17215505 155 44 C155 44.66 155 45.32 155 46 C155.66 46 156.32 46 157 46 C157 46.66 157 47.32 157 48 C157.66 48 158.32 48 159 48 C159 48.66 159 49.32 159 50 C159.66 50 160.32 50 161 50 C162.01567807 51.65715896 163.01005812 53.32733959 164 55 C165.07141346 56.36361713 166.15625499 57.71672873 167.25 59.0625 C172.75931432 66.08394528 178.79038135 73.77677954 179 83 C179.66 83 180.32 83 181 83 C188.79900516 101.43401219 188.37305147 125.10175568 181.4765625 143.734375 C179.55206244 147.99067671 177.32528143 150.7520507 174 154 C170.22271092 152.74090364 169.87175902 151.55883951 167.875 148.1875 C160.22345878 135.75173195 151.13571357 123.43296637 140.375 113.5 C139 112 139 112 137.63671875 109.66796875 C132.57253916 101.41299343 124.73234761 94.63651303 117.9375 87.8125 C117.18202881 87.05235596 116.42655762 86.29221191 115.64819336 85.5090332 C107.75934579 76.86078705 107.75934579 76.86078705 98 71 C98 70.34 98 69.68 98 69 C97.34 69 96.68 69 96 69 C96 68.34 96 67.68 96 67 C95.14148438 66.62101562 95.14148438 66.62101562 94.265625 66.234375 C91.71894338 64.8468726 89.87445703 63.22161839 87.75 61.25 C84.8433245 58.6062639 81.92471221 56.12739432 78.75 53.8125 C75.52880477 51.45412492 72.75194591 48.9048318 70 46 C69.236875 45.278125 68.47375 44.55625 67.6875 43.8125 C66 42 66 42 66 40 C65.319375 39.93683594 64.63875 39.87367188 63.9375 39.80859375 C59.95094191 38.71123002 57.25809135 36.54435804 54 34.0625 C50.07421616 31.09719105 46.6273676 28.75885261 42 27 C40.19864117 25.83766335 38.42727521 24.62763815 36.6875 23.375 C35.80449219 22.74335938 34.92148437 22.11171875 34.01171875 21.4609375 C33.34785156 20.97882813 32.68398438 20.49671875 32 20 C31.67 20.66 31.34 21.32 31 22 C31.55816406 22.25910156 32.11632812 22.51820313 32.69140625 22.78515625 C45.27603055 29.407522 56.28088458 40.45321937 66.74609375 49.9609375 C68.7688269 51.79086247 70.81369435 53.58881728 72.875 55.375 C84.58881469 65.60694657 96.21808641 76.16578595 106.30859375 88.03125 C108.23867842 90.27781507 110.24418139 92.44583904 112.25 94.625 C135 119.85964164 135 119.85964164 135 126 C135.66 126 136.32 126 137 126 C138.5078125 128.1171875 138.5078125 128.1171875 140.125 130.875 C140.66382813 131.77992188 141.20265625 132.68484375 141.7578125 133.6171875 C143 136 143 136 143 138 C143.66 138 144.32 138 145 138 C147.94260521 140.29293912 148.80290134 142.76342215 149.9375 146.25 C151.12656274 149.72077774 152.35079161 152.85925963 154.25 156 C156 159 156 159 156 162 C133.43573555 169.52142148 102.98941684 160.26017623 82.5625 150.1875 C74.71113232 146.18441466 67.72871974 141.72700056 61 136 C60.13246094 135.27039063 59.26492188 134.54078125 58.37109375 133.7890625 C43.33251314 120.70205342 33.88309307 105.8202687 25.84301758 87.83618164 C25.08278813 86.18032133 24.25792005 84.55450929 23.42578125 82.93359375 C18.75398917 73.32122156 16.23528 62.49478285 13.56982422 52.19335938 C12.44209959 47.85253757 11.29011459 43.51842724 10.125 39.1875 C9.87347168 38.25188232 9.62194336 37.31626465 9.36279297 36.35229492 C7.49335962 29.51994708 5.36932077 22.80710586 2.91650391 16.16088867 C1.01965106 10.81832321 0.36979634 5.64647775 0 0 Z " fill="#58994A" transform="translate(355,362)"/>
<path d="M0 0 C5.44026366 -0.02502598 10.88049259 -0.0430116 16.32080078 -0.05493164 C18.16520777 -0.05990958 20.00961093 -0.06669434 21.85400391 -0.07543945 C36.75852506 -0.14425446 51.19174342 0.18880594 65.875 3.0625 C66.86113281 3.24876953 67.84726562 3.43503906 68.86328125 3.62695312 C71.24362851 4.07760139 73.6223714 4.53526113 76 5 C76 5.66 76 6.32 76 7 C76.60730957 7.10594482 77.21461914 7.21188965 77.84033203 7.32104492 C84.07840277 8.47892765 89.91385823 10.15770867 95.875 12.3125 C96.74342529 12.62082764 97.61185059 12.92915527 98.5065918 13.24682617 C104.2853809 15.3197872 109.94805661 17.57218389 115.58203125 20.01171875 C117.71496414 20.88349908 119.77273018 21.55067256 122 22.125 C124.97809643 22.99361146 126.770471 23.85965216 129 26 C129 26.66 129 27.32 129 28 C129.70253906 28.25136719 130.40507812 28.50273437 131.12890625 28.76171875 C137.80072772 31.63922543 144.05982176 36.20906794 149.5625 40.9375 C151.8974807 43.17215505 151.8974807 43.17215505 155 44 C155 44.66 155 45.32 155 46 C155.66 46 156.32 46 157 46 C157 46.66 157 47.32 157 48 C157.66 48 158.32 48 159 48 C159 48.66 159 49.32 159 50 C159.66 50 160.32 50 161 50 C162.01567807 51.65715896 163.01005812 53.32733959 164 55 C165.07141346 56.36361713 166.15625499 57.71672873 167.25 59.0625 C172.75931432 66.08394528 178.79038135 73.77677954 179 83 C179.66 83 180.32 83 181 83 C188.79900516 101.43401219 188.37305147 125.10175568 181.4765625 143.734375 C179.55206244 147.99067671 177.32528143 150.7520507 174 154 C170.22271092 152.74090364 169.87175902 151.55883951 167.875 148.1875 C160.22345878 135.75173195 151.13571357 123.43296637 140.375 113.5 C139 112 139 112 137.63671875 109.66796875 C132.57253916 101.41299343 124.73234761 94.63651303 117.9375 87.8125 C117.18202881 87.05235596 116.42655762 86.29221191 115.64819336 85.5090332 C107.75934579 76.86078705 107.75934579 76.86078705 98 71 C98 70.34 98 69.68 98 69 C97.34 69 96.68 69 96 69 C96 68.34 96 67.68 96 67 C95.14148438 66.62101562 95.14148438 66.62101562 94.265625 66.234375 C91.71894338 64.8468726 89.87445703 63.22161839 87.75 61.25 C84.8433245 58.6062639 81.92471221 56.12739432 78.75 53.8125 C75.52880477 51.45412492 72.75194591 48.9048318 70 46 C69.236875 45.278125 68.47375 44.55625 67.6875 43.8125 C66 42 66 42 66 40 C65.319375 39.93683594 64.63875 39.87367188 63.9375 39.80859375 C59.95094191 38.71123002 57.25809135 36.54435804 54 34.0625 C50.0721269 31.09561295 46.62481114 28.76942692 42 27 C39.40237103 25.23089059 36.91027742 23.35444674 34.40234375 21.4609375 C31.89900606 19.65360379 31.89900606 19.65360379 28 20 C25.60087848 18.48537388 23.38013394 16.95451738 21.125 15.25 C19.9199185 14.35849885 18.71419502 13.46786482 17.5078125 12.578125 C16.92547852 12.14306641 16.34314453 11.70800781 15.74316406 11.25976562 C14.05036004 10.03639465 12.31898449 8.91367603 10.5546875 7.796875 C9.71164062 7.20390625 8.86859375 6.6109375 8 6 C8 5.34 8 4.68 8 4 C6.02 4.33 4.04 4.66 2 5 C2.350625 6.0725 2.70125 7.145 3.0625 8.25 C3.94680186 11.78720743 4.02880551 12.74811124 3 16 C2.49193553 14.27318563 1.99389533 12.54342021 1.5 10.8125 C1.08234375 9.36810547 1.08234375 9.36810547 0.65625 7.89453125 C0.03047092 5.13439851 -0.04974903 2.81289292 0 0 Z " fill="#7DBA43" transform="translate(355,362)"/>
<path d="M0 0 C5.28 0 10.56 0 16 0 C16 1.98 16 3.96 16 6 C16.66 6 17.32 6 18 6 C18.226875 5.38125 18.45375 4.7625 18.6875 4.125 C20.43174314 1.3009873 21.86722253 1.00460375 25 0 C32.63771722 -0.91737944 39.49920145 -0.31161793 46 4 C50.9871349 8.33718248 53.66596907 13.6922791 54.3203125 20.171875 C54.59016959 28.41151143 54.10356651 37.00949549 48.64453125 43.6484375 C47.1875 44.9375 47.1875 44.9375 44 47 C42.96875 47.763125 41.9375 48.52625 40.875 49.3125 C36.09421728 51.95535966 30.28449221 51.89010415 25 51 C24.34 50.01 23.68 49.02 23 48 C20.94074861 47.27617533 20.94074861 47.27617533 19 47 C19 46.34 19 45.68 19 45 C18.01 45 17.02 45 16 45 C16 52.59 16 60.18 16 68 C10.72 68 5.44 68 0 68 C0 45.56 0 23.12 0 0 Z " fill="#3B7947" transform="translate(680,566)"/>
<path d="M0 0 C5.56875 -0.0825 11.1375 -0.165 16.875 -0.25 C18.61120605 -0.28641602 20.34741211 -0.32283203 22.13623047 -0.36035156 C30.30324837 -0.46029748 37.81703116 -0.4843299 45 4 C47.4375 6.5625 47.4375 6.5625 49 9 C49.53625 9.495 50.0725 9.99 50.625 10.5 C54.73570528 14.98440576 54.53129753 20.88974001 54.453125 26.62890625 C53.62900434 32.76007981 50.6115834 37.77131793 45.921875 41.7734375 C44 43 44 43 42 43 C42 43.66 42 44.32 42 45 C36.61842699 47.24085171 31.83822705 47.23598413 26.125 47.125 C23.11375 47.08375 20.1025 47.0425 17 47 C17 53.27 17 59.54 17 66 C11.39 66 5.78 66 0 66 C0 44.22 0 22.44 0 0 Z " fill="#3E7B49" transform="translate(560,551)"/>
<path d="M0 0 C5.61 0 11.22 0 17 0 C19.8125 7.1875 19.8125 7.1875 20.67895508 9.42260742 C21.82142145 12.30898186 22.96758946 14.9461969 24.57421875 17.61328125 C26.19868359 20.33259089 27.03465137 22.98659801 28 26 C28.96047128 28.25804391 29.9406711 30.50776908 30.9375 32.75 C33.14953467 37.7812421 34.98392176 42.78390219 36.359375 48.109375 C36.91602741 50.21121428 36.91602741 50.21121428 39 52 C39.76690235 53.78850584 40.46818035 55.60570298 41.125 57.4375 C41.47820312 58.40558594 41.83140625 59.37367188 42.1953125 60.37109375 C43 63 43 63 43 66 C37.06 66 31.12 66 25 66 C23 58 23 58 23 54 C13.1 54 3.2 54 -7 54 C-7.33 55.65 -7.66 57.3 -8 59 C-8.66 60.98 -9.32 62.96 -10 65 C-15.61 65 -21.22 65 -27 65 C-24.70912343 57.14556604 -22.08029634 49.58226791 -19 42 C-18.34 42 -17.68 42 -17 42 C-16.9175 41.01 -16.835 40.02 -16.75 39 C-16.22053564 35.24080305 -14.83536221 32.3872996 -13.0546875 29.06640625 C-11.39584462 25.81630298 -10.22631669 22.43368674 -9 19 C-8.34 19 -7.68 19 -7 19 C-6.89816406 18.15179687 -6.79632813 17.30359375 -6.69140625 16.4296875 C-5.49980715 10.51881737 -2.59851366 5.41817742 0 0 Z " fill="#397845" transform="translate(210,551)"/>
<path d="M0 0 C5.28 0 10.56 0 16 0 C16.33 11.22 16.66 22.44 17 34 C24.26832128 26.22268688 24.26832128 26.22268688 31 18 C32.99291992 17.54589844 32.99291992 17.54589844 35.23046875 17.609375 C36.43413086 17.62871094 36.43413086 17.62871094 37.66210938 17.6484375 C38.91217773 17.69871094 38.91217773 17.69871094 40.1875 17.75 C41.03248047 17.76804687 41.87746094 17.78609375 42.74804688 17.8046875 C44.83251573 17.85179414 46.91640144 17.92353767 49 18 C47.66000502 21.006818 46.20154709 22.99762609 43.8125 25.25 C41.15615086 27.850426 38.53081846 30.46395388 36 33.1875 C35.1028125 34.13689453 35.1028125 34.13689453 34.1875 35.10546875 C32.78269265 36.89309273 32.78269265 36.89309273 33.2644043 38.8359375 C34.10230966 41.30098668 35.22411706 43.2975952 36.58203125 45.51953125 C37.10216797 46.37740234 37.62230469 47.23527344 38.15820312 48.11914062 C38.70412109 49.00794922 39.25003906 49.89675781 39.8125 50.8125 C50 67.53769602 50 67.53769602 50 70 C43.73 70 37.46 70 31 70 C30.67 68.68 30.34 67.36 30 66 C29.401875 65.443125 28.80375 64.88625 28.1875 64.3125 C24.98168576 60.92349638 22 55.79280441 22 51 C21.21625 51.495 20.4325 51.99 19.625 52.5 C17 54 17 54 15 54 C15 58.95 15 63.9 15 69 C10.05 69 5.1 69 0 69 C0 46.23 0 23.46 0 0 Z " fill="#3A7946" transform="translate(801,547)"/>
<path d="M0 0 C4.95 0 9.9 0 15 0 C15 11.55 15 23.1 15 35 C19.70729496 30.49572725 19.70729496 30.49572725 22.26171875 27.10546875 C28.55170024 19.53925913 28.55170024 19.53925913 33.265625 18.50097656 C38.55068183 18.04442508 43.73792965 18.42690323 49 19 C48.59007812 19.45890625 48.18015625 19.9178125 47.7578125 20.390625 C47.21898437 21.00421875 46.68015625 21.6178125 46.125 22.25 C45.59132813 22.85328125 45.05765625 23.4565625 44.5078125 24.078125 C43.0202513 25.97418746 41.99677564 27.81290005 41 30 C40.34 30 39.68 30 39 30 C39 30.66 39 31.32 39 32 C37.04072937 33.7143618 35.04119788 35.38405168 33 37 C33.65094798 40.2771864 34.87604293 42.75177684 36.5625 45.625 C39 49.78186969 39 49.78186969 39 52 C39.66 52 40.32 52 41 52 C41 52.99 41 53.98 41 55 C41.66 55 42.32 55 43 55 C43.79423861 56.56119422 44.58527123 58.12401964 45.375 59.6875 C45.81585938 60.55761719 46.25671875 61.42773438 46.7109375 62.32421875 C47.9190543 64.83197636 48.96619922 67.41549804 50 70 C43.73 70 37.46 70 31 70 C29.0509375 66.16375 29.0509375 66.16375 27.0625 62.25 C26.65394775 61.45110352 26.24539551 60.65220703 25.82446289 59.82910156 C25.5021167 59.1894043 25.17977051 58.54970703 24.84765625 57.890625 C24.51773682 57.24125977 24.18781738 56.59189453 23.84790039 55.92285156 C22.98547884 53.96706921 22.45625821 52.08459306 22 50 C18.83884224 51.36983503 18.0072908 51.9890638 16 55 C15.70547416 57.38677076 15.5071783 59.78626094 15.375 62.1875 C15.25125 64.435625 15.1275 66.68375 15 69 C10.05 69 5.1 69 0 69 C0 46.23 0 23.46 0 0 Z " fill="#367542" transform="translate(259,547)"/>
<path d="M0 0 C4.37213593 3.97949266 6.88799858 8.05527 7.22705078 13.94238281 C7.22673555 15.52933211 7.21552087 17.11630435 7.1953125 18.703125 C7.1924826 19.54091492 7.18965271 20.37870483 7.18673706 21.24188232 C7.17556349 23.91140163 7.15046421 26.5805825 7.125 29.25 C7.11496654 31.06249515 7.10584133 32.87499556 7.09765625 34.6875 C7.0756334 39.12512993 7.04112304 43.56250763 7 48 C1.72 48 -3.56 48 -9 48 C-9.33 46.68 -9.66 45.36 -10 44 C-12.64 44.66 -15.28 45.32 -18 46 C-18 46.66 -18 47.32 -18 48 C-24.84145269 48.41886445 -30.12209906 48.01137883 -35.765625 43.62890625 C-39.36528207 40.12176373 -40.39827704 37.40689554 -40.5 32.375 C-40.32522414 27.29193542 -39.41206915 23.45241398 -35.8125 19.75 C-30.22173679 16.27130289 -23.46016995 16.86623204 -17.0625 16.9375 C-16.28326172 16.94201172 -15.50402344 16.94652344 -14.70117188 16.95117188 C-12.80074732 16.96283092 -10.90036294 16.98076123 -9 17 C-9.27034634 14.56282742 -9.27034634 14.56282742 -10 12 C-13.04681061 9.96879293 -13.60118324 9.75340125 -17.01171875 9.8046875 C-17.76904297 9.81113281 -18.52636719 9.81757812 -19.30664062 9.82421875 C-20.09232422 9.84097656 -20.87800781 9.85773437 -21.6875 9.875 C-22.48478516 9.88402344 -23.28207031 9.89304687 -24.10351562 9.90234375 C-26.069139 9.92588415 -28.03460775 9.96175453 -30 10 C-30 10.66 -30 11.32 -30 12 C-31.32 11.67 -32.64 11.34 -34 11 C-34.33 9.02 -34.66 7.04 -35 5 C-35.66 5 -36.32 5 -37 5 C-37 3.68 -37 2.36 -37 1 C-25.40896865 -2.73044687 -11.13805438 -6.8146249 0 0 Z " fill="#3A7844" transform="translate(448,569)"/>
<path d="M0 0 C5.61 0 11.22 0 17 0 C17.03738281 2.19140625 17.07476563 4.3828125 17.11328125 6.640625 C17.15952605 8.76881753 17.21074866 10.89683623 17.26245117 13.02490234 C17.29565355 14.50103138 17.32370017 15.97728594 17.34643555 17.45361328 C17.38006951 19.57899332 17.43238519 21.70322804 17.48828125 23.828125 C17.51446533 25.1059082 17.54064941 26.38369141 17.56762695 27.70019531 C18.01812805 31.13835048 18.54600429 32.59663284 21 35 C23.27889342 35.48168728 23.27889342 35.48168728 25.6875 35.25 C26.89986328 35.19585938 26.89986328 35.19585938 28.13671875 35.140625 C28.75160156 35.09421875 29.36648438 35.0478125 30 35 C30.33 34.01 30.66 33.02 31 32 C31.66 32 32.32 32 33 32 C33.33 21.44 33.66 10.88 34 0 C39.28 0 44.56 0 50 0 C50 16.83 50 33.66 50 51 C44.72 51 39.44 51 34 51 C34 48.36 34 45.72 34 43 C33.31035156 43.5775 32.62070312 44.155 31.91015625 44.75 C22.61177273 52.09687093 22.61177273 52.09687093 15.93359375 51.39453125 C10.40821922 50.2671316 8.38089707 48.50786276 5 44 C4.01 43.34 3.02 42.68 2 42 C-0.7998944 33.55396094 -0.22458244 24.72799903 -0.125 15.9375 C-0.11495008 14.38867766 -0.10582779 12.83984901 -0.09765625 11.29101562 C-0.07751736 7.52705776 -0.03834286 3.76399057 0 0 Z " fill="#3C7A47" transform="translate(619,566)"/>
<path d="M0 0 C5.28 0 10.56 0 16 0 C16.03738281 2.35898437 16.07476562 4.71796875 16.11328125 7.1484375 C16.15947035 9.42880622 16.21071324 11.70900905 16.26245117 13.98925781 C16.2957398 15.57606965 16.32375947 17.16300103 16.34643555 18.75 C16.37991078 21.02916484 16.4322186 23.30723041 16.48828125 25.5859375 C16.49467117 26.29744965 16.5010611 27.00896179 16.50764465 27.74203491 C16.54009648 29.9600456 16.54009648 29.9600456 17 33 C20.07356275 35.04904183 20.97598575 35.31626643 24.5 35.375 C25.66015625 35.41753906 25.66015625 35.41753906 26.84375 35.4609375 C29.10789809 35.18039958 29.10789809 35.18039958 30.6027832 33.40576172 C32.47156661 30.18804519 32.43311558 27.75694456 32.51171875 24.046875 C32.52966995 23.38665344 32.54762115 22.72643188 32.56611633 22.04620361 C32.62008809 19.94753311 32.65407043 17.84908823 32.6875 15.75 C32.72068495 14.32288536 32.75517571 12.89580044 32.79101562 11.46875 C32.87825596 7.97913666 32.93842726 4.49053747 33 1 C38.28 1 43.56 1 49 1 C49 17.5 49 34 49 51 C44.05 51 39.1 51 34 51 C34 48.36 34 45.72 34 43 C33.05125 43.763125 32.1025 44.52625 31.125 45.3125 C30.59132813 45.74175781 30.05765625 46.17101562 29.5078125 46.61328125 C27.74707893 48.12270545 27.74707893 48.12270545 26 51 C21.52965249 52.89130087 16.0381137 52.43673865 11.375 51.4375 C7.82213189 49.28707983 5.44073415 46.32766759 3 43 C2.22233276 41.97447021 2.22233276 41.97447021 1.42895508 40.92822266 C-0.52148156 36.9313771 -0.37728609 33.58500942 -0.29296875 29.19921875 C-0.28872391 28.36284378 -0.28447906 27.52646881 -0.28010559 26.66474915 C-0.26337364 24.00533235 -0.22573226 21.346686 -0.1875 18.6875 C-0.17244604 16.87956827 -0.15875888 15.07162461 -0.14648438 13.26367188 C-0.11348816 8.84215311 -0.06174428 4.42120698 0 0 Z " fill="#397944" transform="translate(313,565)"/>
<path d="M0 0 C5.28 0 10.56 0 16 0 C16.02578125 2.20300781 16.0515625 4.40601563 16.078125 6.67578125 C16.11654397 8.81059521 16.16170414 10.94516748 16.20751953 13.07983398 C16.23573541 14.56278942 16.25694702 16.04589543 16.27099609 17.52905273 C16.2924192 19.66207997 16.33905782 21.79329606 16.390625 23.92578125 C16.41157227 25.20880127 16.43251953 26.49182129 16.45410156 27.8137207 C16.6971561 31.06175889 16.6971561 31.06175889 18.90429688 32.92382812 C22.35081413 34.69366131 25.17533102 34.19123345 29 34 C29.66 32.68 30.32 31.36 31 30 C31.66 30 32.32 30 33 30 C33 20.1 33 10.2 33 0 C38.28 0 43.56 0 49 0 C49 16.5 49 33 49 50 C44.05 50 39.1 50 34 50 C34 47.36 34 44.72 34 42 C33.54109375 42.42152344 33.0821875 42.84304688 32.609375 43.27734375 C31.99578125 43.82519531 31.3821875 44.37304688 30.75 44.9375 C30.14671875 45.48277344 29.5434375 46.02804687 28.921875 46.58984375 C26.91532695 48.06212799 25.42997551 48.57529189 23 49 C23 49.66 23 50.32 23 51 C16.96346301 51.3221077 12.16754855 51.56806924 7 48 C2.37917434 43.37917434 -0.08953551 37.37878758 -0.34057617 30.87890625 C-0.34011048 29.44001673 -0.32372219 28.00106091 -0.29296875 26.5625 C-0.28872391 25.79695801 -0.28447906 25.03141602 -0.28010559 24.24267578 C-0.26348328 21.82807313 -0.22586506 19.41434489 -0.1875 17 C-0.17243178 15.35027258 -0.15874714 13.70053191 -0.14648438 12.05078125 C-0.11620153 8.03325675 -0.05745497 4.01759221 0 0 Z " fill="#397946" transform="translate(740,566)"/>
<path d="M0 0 C0 1.65 0 3.3 0 5 C-0.66 5 -1.32 5 -2 5 C-2.66 6.98 -3.32 8.96 -4 11 C-4.70125 10.71125 -5.4025 10.4225 -6.125 10.125 C-7.07375 9.75375 -8.0225 9.3825 -9 9 C-9.928125 8.62875 -10.85625 8.2575 -11.8125 7.875 C-15.72522979 6.80091731 -18.95316589 6.860454 -23 7 C-23 8.65 -23 10.3 -23 12 C-21.64068359 12.31130859 -21.64068359 12.31130859 -20.25390625 12.62890625 C-12.2838133 14.64462288 -5.92389286 17.03200868 0 23 C1.75452809 26.50905617 1.53987516 30.17065293 1 34 C-1.02493609 38.86363155 -4.64525328 42.25512383 -9.44921875 44.3359375 C-20.22285609 47.14071292 -30.22808455 44.82270908 -40 40 C-41 39 -41 39 -41.3125 36.75 C-40.90645326 33.17678871 -39.38632549 31.6100435 -37 29 C-36.39671875 29.20496094 -35.7934375 29.40992188 -35.171875 29.62109375 C-34.37265625 29.89050781 -33.5734375 30.15992188 -32.75 30.4375 C-31.96109375 30.70433594 -31.1721875 30.97117187 -30.359375 31.24609375 C-26.51522937 32.4744383 -23.30380796 33.12211482 -19.25 33.0625 C-18.45078125 33.05347656 -17.6515625 33.04445313 -16.828125 33.03515625 C-16.22484375 33.02355469 -15.6215625 33.01195312 -15 33 C-15 31.68 -15 30.36 -15 29 C-16.22976563 28.6596875 -17.45953125 28.319375 -18.7265625 27.96875 C-34.75280768 23.27174362 -34.75280768 23.27174362 -38.28515625 17.00390625 C-40.25977032 11.46851272 -38.90725848 6.97245803 -36.94921875 1.69921875 C-34.85769362 -2.04486944 -30.51392475 -3.16937475 -26.6484375 -4.3828125 C-16.71302886 -6.69814372 -8.96113643 -4.44879114 0 0 Z " fill="#3C7A46" transform="translate(502,571)"/>
<path d="M0 0 C4.9190625 -0.12375 4.9190625 -0.12375 9.9375 -0.25 C10.95191162 -0.28641602 11.96632324 -0.32283203 13.01147461 -0.36035156 C20.39322093 -0.44917607 26.45907007 0.95941886 32.15625 5.8515625 C32.5996875 6.43679688 33.043125 7.02203125 33.5 7.625 C33.9640625 8.21539063 34.428125 8.80578125 34.90625 9.4140625 C38.4359914 14.53218753 37.45180305 21.03489013 37 27 C35.73619596 32.20816061 33.39180075 35.03359123 28.9375 37.9375 C24.8569616 40.2479776 21.58356596 41.1247605 16.89453125 41.09765625 C16.00870361 41.09515869 15.12287598 41.09266113 14.21020508 41.09008789 C13.0889624 41.08098389 11.96771973 41.07187988 10.8125 41.0625 C7.244375 41.041875 3.67625 41.02125 0 41 C0 27.47 0 13.94 0 0 Z " fill="#7D9480" transform="translate(529,655)"/>
<path d="M0 0 C5.28 0 10.56 0 16 0 C16 1.98 16 3.96 16 6 C16.66 6 17.32 6 18 6 C18.33 5.01 18.66 4.02 19 3 C23.06725434 0.2884971 26.1547611 0.42132512 31 0 C31 4.62 31 9.24 31 14 C29.11197917 14.35807292 27.22395833 14.71614583 25.3359375 15.07421875 C21.69509318 16.51716207 19.06353592 17.62674051 17 21 C16.09506213 26.09616805 16.1131125 31.15629693 16.125 36.3125 C16.10686374 37.73506298 16.08605809 39.1575946 16.0625 40.58007812 C16.00577037 44.05476803 16.00425288 47.52327408 16 51 C10.72 51 5.44 51 0 51 C0 34.17 0 17.34 0 0 Z " fill="#397844" transform="translate(374,566)"/>
<path d="M0 0 C3.320625 -0.0825 6.64125 -0.165 10.0625 -0.25 C11.09511963 -0.28641602 12.12773926 -0.32283203 13.19165039 -0.36035156 C20.65720754 -0.44964732 24.68365774 1.12001856 30.375 6.0625 C33.05284837 9.25531921 33.51479642 12.6862848 33.484375 16.80078125 C32.40338855 21.70880844 28.25967771 25.42629588 24.25 28.21875 C20.94455878 29.36647265 17.70137164 29.20981632 14.25 29.125 C13.20392578 29.11146484 13.20392578 29.11146484 12.13671875 29.09765625 C10.42433042 29.07419888 8.71211996 29.03833104 7 29 C7 32.96 7 36.92 7 41 C4.69 41 2.38 41 0 41 C0 27.47 0 13.94 0 0 Z " fill="#768E79" transform="translate(332,655)"/>
<path d="M0 0 C0.86367188 -0.00257813 1.72734375 -0.00515625 2.6171875 -0.0078125 C5.125 0.125 5.125 0.125 7.3828125 0.6953125 C7.95773437 0.83710937 8.53265625 0.97890625 9.125 1.125 C9.455 0.795 9.785 0.465 10.125 0.125 C12.45797433 0.08407063 14.79205225 0.08258277 17.125 0.125 C17.29966358 4.37489113 17.42580286 8.62281667 17.50952148 12.87524414 C17.54445919 14.31767208 17.59203081 15.75985697 17.65307617 17.20141602 C18.20869935 30.67177629 18.20869935 30.67177629 14.109375 36.58984375 C11.58853373 39.27284627 9.76644405 40.64365562 6.08203125 41.0390625 C4.69805885 40.98930758 3.31503813 40.89228093 1.9375 40.75 C1.23947266 40.71777344 0.54144531 40.68554688 -0.17773438 40.65234375 C-3.49987699 40.46900952 -6.68831086 40.09665199 -9.875 39.125 C-10.205 37.145 -10.535 35.165 -10.875 33.125 C-7.125 32 -7.125 32 -4.875 33.125 C-2.87870297 33.27245376 -0.87652719 33.34613182 1.125 33.375 C2.1975 33.40078125 3.27 33.4265625 4.375 33.453125 C5.2825 33.34484375 6.19 33.2365625 7.125 33.125 C7.785 32.135 8.445 31.145 9.125 30.125 C9.785 30.125 10.445 30.125 11.125 30.125 C11.125 28.145 11.125 26.165 11.125 24.125 C10.135 24.125 9.145 24.125 8.125 24.125 C7.795 25.115 7.465 26.105 7.125 27.125 C1.19885631 27.65835293 -4.37357905 28.10157557 -9.625 24.9375 C-12.15643789 22.71322403 -12.81397511 21.39241246 -13.5703125 18.078125 C-13.8648499 12.5203324 -13.65806686 8.24838192 -10 3.875 C-6.70881506 0.66331228 -4.58246667 -0.01359782 0 0 Z " fill="#8CA18C" transform="translate(598.875,665.875)"/>
<path d="M0 0 C2.31 0 4.62 0 7 0 C7 0.99 7 1.98 7 3 C7.55171875 2.51660156 8.1034375 2.03320312 8.671875 1.53515625 C12.81197171 -1.19480685 17.23404652 -0.82828985 22 0 C26.36160478 2.23347878 29.29290978 4.93936466 32 9 C32.88190779 14.22646409 32.53952252 18.81099788 29.875 23.4375 C27.34541294 26.91832453 25.23676465 28.80091567 21 30 C15.69307022 30.03364139 11.77532198 29.38766099 7 27 C7 31.62 7 36.24 7 41 C4.69 41 2.38 41 0 41 C0 27.47 0 13.94 0 0 Z " fill="#899F8B" transform="translate(407,666)"/>
<path d="M0 0 C5.28 0 10.56 0 16 0 C16 16.83 16 33.66 16 51 C10.72 51 5.44 51 0 51 C0 34.17 0 17.34 0 0 Z " fill="#417D4A" transform="translate(511,566)"/>
<path d="M0 0 C0.66 0 1.32 0 2 0 C3.00484204 1.95585325 4.00373805 3.91476237 5 5.875 C5.556875 6.96554687 6.11375 8.05609375 6.6875 9.1796875 C8 12 8 12 8 14 C8.66 14 9.32 14 10 14 C10.28875 14.804375 10.5775 15.60875 10.875 16.4375 C11.73262568 19.1326468 11.73262568 19.1326468 14 20 C14.268125 20.7425 14.53625 21.485 14.8125 22.25 C15.99792046 24.99518422 17.28713181 26.40664651 19.4453125 28.41796875 C21.47445259 30.48279723 23.21249664 32.7234627 25 35 C27.19957045 37.79831931 29.36083878 40.48033611 31.9375 42.9375 C34 45 34 45 35 48 C35.99 48.33 36.98 48.66 38 49 C39.68945546 50.64356193 41.3525161 52.31436886 43 54 C53.91189525 63.50956333 66.32555321 71.9905492 80 77 C80 77.33 80 77.66 80 78 C73.83412342 77.60220151 69.04301631 76.42375701 63.375 73.98828125 C60.29976214 72.70861813 57.21975813 71.8399369 54 71 C54 70.34 54 69.68 54 69 C53.14921875 68.92652344 52.2984375 68.85304688 51.421875 68.77734375 C47.34673779 67.85159911 44.54377756 66.01173097 41.25 63.5625 C40.63801758 63.11366455 40.02603516 62.6648291 39.39550781 62.20239258 C28.02630705 53.67846979 16.14383144 41.84456238 10.9375 28.328125 C9.31864144 24.30795957 7.19418631 20.52859537 5.171875 16.69921875 C4 14 4 14 4 10 C3.34 10 2.68 10 2 10 C-0.09350689 6.5980513 -0.17942163 3.94727588 0 0 Z " fill="#98C972" transform="translate(384,433)"/>
<path d="M0 0 C15.13392857 -0.66964286 15.13392857 -0.66964286 19.3125 2.3125 C22.83985418 5.83985418 24.29919006 7.87727271 24.375 12.8125 C24.27657082 17.64256027 23.19864056 20.26825268 20 24 C19.46375 24.70898438 18.9275 25.41796875 18.375 26.1484375 C14.99055502 28.78696862 11.83875817 28.43637744 7.75 28.25 C5.1925 28.1675 2.635 28.085 0 28 C0 18.76 0 9.52 0 0 Z " fill="#F8F9F8" transform="translate(536,662)"/>
<path d="M0 0 C2.31 0 4.62 0 7 0 C7.33 8.25 7.66 16.5 8 25 C11.28587046 21.07210211 11.28587046 21.07210211 14.51953125 17.1015625 C16.5901878 14.73688523 17.98635161 13.17596789 21.16015625 12.625 C23.375 12.625 23.375 12.625 27 13 C26.06409496 14.1055189 25.12620142 15.20935453 24.1875 16.3125 C23.66542969 16.92738281 23.14335937 17.54226563 22.60546875 18.17578125 C21 20 21 20 19.23828125 21.41796875 C17.76280755 22.96307152 17.76280755 22.96307152 18.02734375 25.26953125 C19.29854464 28.83808315 21.33102046 31.67004758 23.5625 34.6875 C28 40.75455235 28 40.75455235 28 43 C25.69 43 23.38 43 21 43 C20.34 41.35 19.68 39.7 19 38 C18.34 38 17.68 38 17 38 C13 32.58823529 13 32.58823529 13 30 C12.38125 30.495 11.7625 30.99 11.125 31.5 C9 33 9 33 7 33 C7 36.3 7 39.6 7 43 C4.69 43 2.38 43 0 43 C0 28.81 0 14.62 0 0 Z " fill="#8CA18E" transform="translate(482,653)"/>
<path d="M0 0 C2.31 0 4.62 0 7 0 C7.01981934 0.62567871 7.03963867 1.25135742 7.06005859 1.89599609 C7.15514226 4.72276519 7.26488746 7.54877815 7.375 10.375 C7.4059375 11.35984375 7.436875 12.3446875 7.46875 13.359375 C7.50742187 14.30039062 7.54609375 15.24140625 7.5859375 16.2109375 C7.6173584 17.08024902 7.6487793 17.94956055 7.68115234 18.84521484 C7.81229433 21.20961794 7.81229433 21.20961794 10 23 C14.06095958 23.47213673 14.06095958 23.47213673 18 23 C20.18099664 21.19744113 20.89605101 19.67391386 21.32543945 16.89013672 C21.52027085 14.34124152 21.62144421 11.8054153 21.6875 9.25 C21.72166016 8.36183594 21.75582031 7.47367188 21.79101562 6.55859375 C21.87328714 4.37252197 21.94250172 2.18684049 22 0 C24.31 0 26.62 0 29 0 C29 9.9 29 19.8 29 30 C26.69 30 24.38 30 22 30 C21.67 29.34 21.34 28.68 21 28 C20.45085937 28.31839844 19.90171875 28.63679687 19.3359375 28.96484375 C16.64345282 30.15800168 14.5636765 30.4349104 11.625 30.5625 C10.70976562 30.62566406 9.79453125 30.68882812 8.8515625 30.75390625 C5.14298068 29.77341818 3.50938528 28.2791904 1.16455078 25.28833008 C-1.13121241 20.77717946 -0.61415618 16.00199493 -0.375 11.0625 C-0.34792969 9.99708984 -0.32085937 8.93167969 -0.29296875 7.83398438 C-0.22265164 5.22053177 -0.12430438 2.61134825 0 0 Z " fill="#829883" transform="translate(369,666)"/>
<path d="M0 0 C1.98 0 3.96 0 6 0 C6.05607422 1.86205078 6.05607422 1.86205078 6.11328125 3.76171875 C6.1789595 5.40367511 6.2454062 7.04560087 6.3125 8.6875 C6.33505859 9.50412109 6.35761719 10.32074219 6.38085938 11.16210938 C6.58767316 15.80601891 6.83634687 19.32750755 10 23 C14.39092112 23.54886514 16.28500878 23.47666082 20 21 C20.88639389 18.34081834 21.17989025 16.51935359 21.31640625 13.76953125 C21.35830078 12.96708984 21.40019531 12.16464844 21.44335938 11.33789062 C21.48267578 10.50451172 21.52199219 9.67113281 21.5625 8.8125 C21.60568359 7.96751953 21.64886719 7.12253906 21.69335938 6.25195312 C21.79931518 4.16815567 21.9001502 2.08409897 22 0 C24.31 0 26.62 0 29 0 C29 9.9 29 19.8 29 30 C26.69 30 24.38 30 22 30 C22 28.68 22 27.36 22 26 C21.38125 26.66 20.7625 27.32 20.125 28 C15.78337249 30.77864161 12.03085082 30.98142827 7 30 C3.875 27.625 3.875 27.625 2 25 C2 24.34 2 23.68 2 23 C1.34 23 0.68 23 0 23 C0 15.41 0 7.82 0 0 Z " fill="#7D947E" transform="translate(444,666)"/>
<path d="M0 0 C4.52286992 1.4214734 6.74987306 3.60214001 10 7 C11.45523605 8.23283205 12.91388103 9.46164595 14.375 10.6875 C26.89383066 21.81765242 36.14870381 40.08202062 37.17480469 56.85791016 C37.74474148 74.76577556 37.74474148 74.76577556 36 80 C35.34 80 34.68 80 34 80 C33.98582031 79.29359375 33.97164062 78.5871875 33.95703125 77.859375 C33.18015486 61.14603436 28.20069879 45.24266803 20.6875 30.375 C19 27 19 27 19 25 C18.34 25 17.68 25 17 25 C15.87890625 23.26953125 15.87890625 23.26953125 14.5625 20.8125 C11.47066714 15.42299584 7.71646169 10.91669743 3.60766602 6.29223633 C0 2.19315444 0 2.19315444 0 0 Z " fill="#AEDB7F" transform="translate(496,406)"/>
<path d="M0 0 C3.25397022 2.93650971 4.86377731 5.75232561 5.1328125 10.19140625 C5.13023437 10.97386719 5.12765625 11.75632812 5.125 12.5625 C5.12886719 13.74005859 5.12886719 13.74005859 5.1328125 14.94140625 C5 17 5 17 4 19 C3.34 19 2.68 19 2 19 C1.01 21.475 1.01 21.475 0 24 C-9.66775144 24.91428823 -9.66775144 24.91428823 -14.1875 21.8125 C-17.39547011 16.88260476 -16.98865872 10.57112799 -16 5 C-12.95464485 -0.92481547 -5.87936505 -1.28075362 0 0 Z " fill="#EFF4F0" transform="translate(713,579)"/>
<path d="M0 0 C2.26598448 3.39897673 2.23742654 4.56319173 2.1953125 8.54296875 C2.18886719 9.61611328 2.18242188 10.68925781 2.17578125 11.79492188 C2.15902344 12.91447266 2.14226563 14.03402344 2.125 15.1875 C2.11597656 16.31865234 2.10695313 17.44980469 2.09765625 18.61523438 C2.07406862 21.41036828 2.041153 24.20507845 2 27 C0.35 27 -1.3 27 -3 27 C-4.125 22.25 -4.125 22.25 -3 20 C-2.9603287 18.33380554 -2.95615553 16.66608987 -3 15 C-5.1462026 15.14029419 -7.29196218 15.28738164 -9.4375 15.4375 C-10.63246094 15.51871094 -11.82742188 15.59992187 -13.05859375 15.68359375 C-15.88570244 15.67656114 -15.88570244 15.67656114 -17 17 C-17.07148199 18.35243917 -17.08399454 19.70834367 -17.0625 21.0625 C-17.041875 22.361875 -17.02125 23.66125 -17 25 C-14.03 25 -11.06 25 -8 25 C-10.3941161 27.3941161 -11.03786311 27.29598923 -14.3125 27.3125 C-18.32562343 27.18304441 -21.12919935 27.0560136 -24 24 C-24.73339285 20.85429019 -24.87940806 18.11413911 -24 15 C-21.94921875 12.23046875 -21.94921875 12.23046875 -19 10 C-16.1612599 9.63228755 -13.98179849 9.51369196 -11.1875 9.6875 C-10.49462891 9.71005859 -9.80175781 9.73261719 -9.08789062 9.75585938 C-7.39098427 9.81437339 -5.69520139 9.9040452 -4 10 C-4.34786708 8.02463255 -4.34786708 8.02463255 -5 6 C-8.00313748 4.49843126 -10.79067522 4.90718796 -14.125 4.9375 C-15.40632812 4.94652344 -16.68765625 4.95554687 -18.0078125 4.96484375 C-18.99523437 4.97644531 -19.98265625 4.98804688 -21 5 C-21 3.35 -21 1.7 -21 0 C-14.36158509 -2.30901388 -6.26957394 -4.02756356 0 0 Z " fill="#758D77" transform="translate(684,668)"/>
<path d="M0 0 C0.33 0 0.66 0 1 0 C1.17534031 4.49950218 1.28121079 8.99811773 1.375 13.5 C1.45041016 15.40265625 1.45041016 15.40265625 1.52734375 17.34375 C1.63390278 24.16352783 1.58280179 29.46328195 -3.16845703 34.68896484 C-6.40560681 37.00614617 -9.27338355 36.90907402 -13.125 36.5625 C-13.82753906 36.53478516 -14.53007813 36.50707031 -15.25390625 36.47851562 C-18.59762814 36.31733432 -21.79523405 35.98799779 -25 35 C-25.33 33.02 -25.66 31.04 -26 29 C-22.25 27.875 -22.25 27.875 -20 29 C-18.00370297 29.14745376 -16.00152719 29.22113182 -14 29.25 C-12.9275 29.27578125 -11.855 29.3015625 -10.75 29.328125 C-9.8425 29.21984375 -8.935 29.1115625 -8 29 C-7.34 28.01 -6.68 27.02 -6 26 C-5.34 26 -4.68 26 -4 26 C-4 24.02 -4 22.04 -4 20 C-4.99 20 -5.98 20 -7 20 C-7.33 20.99 -7.66 21.98 -8 23 C-18.91908122 23.62693289 -18.91908122 23.62693289 -23.125 21.1875 C-25.50156661 18.41483896 -26.91565076 16.67479393 -27.375 13 C-27 10 -27 10 -25 8.125 C-24.34 7.75375 -23.68 7.3825 -23 7 C-23 8.98 -23 10.96 -23 13 C-22.34 13 -21.68 13 -21 13 C-20.649375 13.66 -20.29875 14.32 -19.9375 15 C-17.61653885 17.39583086 -16.80987982 17.39746922 -13.5625 17.5625 C-9.8452787 17.42370765 -9.28649335 17.29383933 -6.5625 14.5 C-6.046875 13.675 -5.53125 12.85 -5 12 C-4.34 12 -3.68 12 -3 12 C-3 10.02 -3 8.04 -3 6 C-2.01 6 -1.02 6 0 6 C0 4.02 0 2.04 0 0 Z " fill="#7A907B" transform="translate(614,670)"/>
<path d="M0 0 C3.33434242 1.4031723 5.05526479 2.96989805 7.1875 5.875 C7.95126953 6.89207031 7.95126953 6.89207031 8.73046875 7.9296875 C10.81615922 11.33096735 11.16804097 14.49663653 11.25 18.4375 C11.27578125 19.17871094 11.3015625 19.91992188 11.328125 20.68359375 C10.88475326 23.8135871 10.01293398 25.55905268 8 28 C5.22265625 28.62890625 5.22265625 28.62890625 2.0625 28.5625 C0.50208984 28.56443359 0.50208984 28.56443359 -1.08984375 28.56640625 C-4.69924446 27.86390544 -5.88698561 26.99218823 -8 24 C-8.53125 21.125 -8.53125 21.125 -8.5 18 C-8.5103125 16.96875 -8.520625 15.9375 -8.53125 14.875 C-7.87886335 11.34443694 -6.62829741 10.3511135 -4 8 C-2.96215245 6.16482992 -2.96215245 6.16482992 -2.3125 4.3125 C-1 1 -1 1 0 0 Z " fill="#078CCD" transform="translate(633,349)"/>
<path d="M0 0 C1.796875 0.05859375 1.796875 0.05859375 4 1 C5.62048915 3.01378305 6.93480669 4.86440534 8.25 7.0625 C8.60481445 7.65160156 8.95962891 8.24070312 9.32519531 8.84765625 C12.07535851 13.65714586 13.15876754 16.59241816 12 22 C10.20636089 24.8100346 8.98119065 26.50940468 6 28 C2.91917953 28.46985486 0.07325255 28.5513295 -3 28 C-6.42315638 24.82731847 -7.28580743 21.83747322 -7.625 17.3125 C-7.40974045 11.15420504 -4.39928446 4.39928446 0 0 Z " fill="#1995CD" transform="translate(613,475)"/>
<path d="M0 0 C1.32 0 2.64 0 4 0 C5.6328125 1.79296875 5.6328125 1.79296875 7.125 4.1875 C7.62257813 4.96480469 8.12015625 5.74210937 8.6328125 6.54296875 C11.88220446 12.3825903 12.61109136 16.50718068 11 23 C9.5625 25.5625 9.5625 25.5625 7 27 C3.57748069 27.54099723 0.39486046 27.73990548 -3 27 C-5.77846303 24.94718367 -6.83669739 23.72319726 -7.6015625 20.3359375 C-7.66465799 12.36487371 -5.80557944 7.34975455 -1 1 C-0.67 0.67 -0.34 0.34 0 0 Z " fill="#0B8CCB" transform="translate(554,350)"/>
<path d="M0 0 C2.578125 -0.020625 5.15625 -0.04125 7.8125 -0.0625 C9.02450073 -0.07615601 9.02450073 -0.07615601 10.26098633 -0.09008789 C13.44381813 -0.10246624 15.96056322 -0.01314559 19 1 C21.8039161 5.36164727 22.84276646 8.8497605 22 14 C18.7890482 17.4456559 16.68482311 19.2851636 11.9140625 19.48828125 C10.48345169 19.46013392 9.05346153 19.39579007 7.625 19.3125 C5.10875 19.209375 2.5925 19.10625 0 19 C0 12.73 0 6.46 0 0 Z " fill="#F0F5F1" transform="translate(577,565)"/>
<path d="M0 0 C3.16115776 1.36983503 3.9927092 1.9890638 6 5 C6 5.99 6 6.98 6 8 C6.66 8 7.32 8 8 8 C10.36462624 12.58146334 10.6809247 16.95938859 10 22 C8.5625 25.5625 8.5625 25.5625 6 28 C2.83671499 28.81442786 0.1691729 28.77393349 -3 28 C-6.23714773 25.43725805 -8.74153932 23.19479724 -9.23828125 18.9765625 C-9.44154954 12.5361673 -9.44154954 12.5361673 -7.25 9.875 C-6.5075 9.25625 -5.765 8.6375 -5 8 C-3.54605726 5.72536484 -2.29703949 3.37045147 -1 1 C-0.67 0.67 -0.34 0.34 0 0 Z " fill="#078DCE" transform="translate(594,349)"/>
<path d="M0 0 C2.31 0 4.62 0 7 0 C7.33 2.31 7.66 4.62 8 7 C10.31 7 12.62 7 15 7 C15 9.31 15 11.62 15 14 C12.36 14 9.72 14 7 14 C7 19.94 7 25.88 7 32 C9.64 32 12.28 32 15 32 C15.042721 33.66611905 15.04063832 35.33382885 15 37 C14 38 14 38 11.71484375 38.09765625 C10.34005859 38.08025391 10.34005859 38.08025391 8.9375 38.0625 C8.01839844 38.05347656 7.09929688 38.04445313 6.15234375 38.03515625 C5.44207031 38.02355469 4.73179687 38.01195312 4 38 C3.34 36.35 2.68 34.7 2 33 C1.34 33 0.68 33 0 33 C0 26.73 0 20.46 0 14 C-1.32 14 -2.64 14 -4 14 C-4 12.02 -4 10.04 -4 8 C-2.68 8 -1.36 8 0 8 C0 5.36 0 2.72 0 0 Z " fill="#7A927C" transform="translate(641,658)"/>
<path d="M0 0 C5.18105681 6.35705686 7.81400262 12.53755537 7.44140625 20.72265625 C7 23 7 23 5 26 C1.46237126 27.44125615 -2.24390555 27.32948197 -6 27 C-8.9375 25.4375 -8.9375 25.4375 -11 23 C-12.02375384 16.72950772 -10.3516207 8.53884668 -6.79296875 3.18359375 C-4.48137779 0.73232962 -3.4254845 0 0 0 Z " fill="#0B8BC9" transform="translate(578,381)"/>
<path d="M0 0 C4.34776663 1.64248962 6.50500827 5.12662012 8.8125 9.0625 C10.34299431 13.83618463 10.64950219 18.38849563 8.375 22.9375 C6.8125 25.0625 6.8125 25.0625 5.8125 26.0625 C2.75852448 26.50419067 -0.13780077 26.53966383 -3.1875 26.0625 C-6.94376348 23.08879141 -8.91909 20.86468144 -9.625 16.125 C-9.60400584 11.15988205 -5.61198044 0.1603423 0 0 Z " fill="#0D8FCE" transform="translate(500.1875,320.9375)"/>
<path d="M0 0 C4.6618954 1.86475816 6.36465106 4.95958227 8.796875 9.19140625 C10.62125215 13.45026071 10.86639739 17.45974447 10 22 C9.34 22.99 8.68 23.98 8 25 C7.34 25 6.68 25 6 25 C6 25.66 6 26.32 6 27 C-2.98702969 27.7717869 -2.98702969 27.7717869 -6.625 25 C-9.07253395 19.65992593 -8.57006631 15.12733037 -6.6875 9.75 C-5.4739593 6.84208171 -4.20369766 4.2995106 -2 2 C-1.34 2 -0.68 2 0 2 C0 1.34 0 0.68 0 0 Z " fill="#1192CA" transform="translate(653,380)"/>
<path d="M0 0 C3.60411654 1.44633744 5.11402568 3.19136668 7.1875 6.4375 C7.95126953 7.61119141 7.95126953 7.61119141 8.73046875 8.80859375 C11.11495409 12.9245823 11.4049938 16.30207196 11 21 C9.6875 23.9375 9.6875 23.9375 7 26 C3.18499623 26.76415857 -0.18878125 26.79810044 -4 26 C-7.4372091 22.88253128 -8.23934106 20.0559481 -8.5625 15.5625 C-8.34594499 10.45180187 -6.35961591 7.75957018 -3 4 C-2.34 4 -1.68 4 -1 4 C-0.67 2.68 -0.34 1.36 0 0 Z " fill="#088ECA" transform="translate(633,410)"/>
<path d="M0 0 C1.9375 0.3125 1.9375 0.3125 4 1 C4.33 1.99 4.66 2.98 5 4 C5.66 4 6.32 4 7 4 C10.14489102 9.93878974 12.24593421 15.21949486 11 22 C9.5625 25.0625 9.5625 25.0625 7 27 C3.87756353 27.64167502 1.12302343 27.63723456 -2 27 C-4.50160818 25.12379387 -5.61945652 23.76108697 -7 21 C-7.66744125 12.65698435 -4.78250361 6.5965567 0 0 Z " fill="#1891CB" transform="translate(613,380)"/>
<path d="M0 0 C2.48660455 0.3878678 3.72345219 0.70962479 5.484375 2.55859375 C5.90203125 3.17863281 6.3196875 3.79867188 6.75 4.4375 C7.17796875 5.05496094 7.6059375 5.67242187 8.046875 6.30859375 C9 8 9 8 9 10 C9.66 10 10.32 10 11 10 C12.57170996 13.14341993 12.23175783 16.55771451 12 20 C11 23 11 23 8.9375 24.6875 C5.14210573 26.38331446 2.0884128 26.84900508 -2 26 C-5 24.0625 -5 24.0625 -7 21 C-7.75812919 16.9031865 -7.82701139 13.35329137 -5.625 9.75 C-5.08875 9.1725 -4.5525 8.595 -4 8 C-3.31246699 6.34183216 -2.64438717 4.67540664 -2 3 C-1.34 2.01 -0.68 1.02 0 0 Z " fill="#1492CB" transform="translate(613,441)"/>
<path d="M0 0 C5.75383333 2.20224152 8.35370507 7.72922027 11 13 C11.81663326 16.66826392 11.18884451 19.43346646 10 23 C7.0701734 25.78595118 5.00456444 26.41162711 1 26.375 C0.154375 26.38273437 -0.69125 26.39046875 -1.5625 26.3984375 C-4.51167315 25.91636112 -5.88910861 25.10127457 -8 23 C-9.10014899 13.72731565 -5.5343199 7.17965825 0 0 Z " fill="#0F90CC" transform="translate(594,410)"/>
<path d="M0 0 C0.66 0 1.32 0 2 0 C3.69140625 2.30078125 3.69140625 2.30078125 5.5625 5.3125 C6.18253906 6.29863281 6.80257812 7.28476562 7.44140625 8.30078125 C9.99472169 12.72268844 10.84541671 16.94716061 10 22 C8.01078114 24.9838283 6.61497432 26.60276841 3.0625 27.4765625 C-0.82145378 27.75608948 -2.67795887 27.2079849 -6 25.0625 C-8.68721405 20.94770348 -8.94090041 17.78926785 -8 13 C-6.125 9.75 -6.125 9.75 -4 7 C-3.32033324 5.33859237 -2.65061095 3.67299959 -2 2 C-1.34 1.34 -0.68 0.68 0 0 Z " fill="#138EC9" transform="translate(575,319)"/>
<path d="M0 0 C2.3125 0 2.3125 0 5 1 C6.59813327 3.37436944 7.81201238 5.44336305 9 8 C9.4125 8.804375 9.825 9.60875 10.25 10.4375 C11.30621435 14.04623237 11.71208102 17.28218753 11 21 C9.01078114 23.9838283 7.61497432 25.60276841 4.0625 26.4765625 C0.13936508 26.75890933 -1.67112371 26.21925086 -5 24 C-7.01329309 20.98006037 -7.77972171 19.04215775 -7.5703125 15.3984375 C-6.36637503 10.33530319 -3.73348497 3.73348497 0 0 Z " fill="#118EC9" transform="translate(613,320)"/>
<path d="M0 0 C2.83094947 0.35003063 3.80598338 0.76781618 5.66796875 2.99609375 C6.42013672 4.20458984 6.42013672 4.20458984 7.1875 5.4375 C7.95126953 6.64212891 7.95126953 6.64212891 8.73046875 7.87109375 C11.52066914 12.55004517 11.58220177 16.61246126 11 22 C9.625 24.625 9.625 24.625 7 26 C3.52098272 26.64725903 0.46751082 26.754558 -3 26 C-6.18341448 22.8923811 -6.87540512 20.87216414 -7.5 16.5 C-6.90543092 12.33801642 -5.45958725 10.37314823 -3 7 C-1.8872762 4.70006043 -0.94981938 2.37454845 0 0 Z " fill="#0F8DCA" transform="translate(535,320)"/>
<path d="M0 0 C2.31 0 4.62 0 7 0 C7 14.19 7 28.38 7 43 C4.69 43 2.38 43 0 43 C0 28.81 0 14.62 0 0 Z " fill="#839783" transform="translate(695,653)"/>
<path d="M0 0 C12.92249047 -0.43074968 12.92249047 -0.43074968 18 3 C19.56941198 4.56941198 19.2449847 6.14134994 19.3125 8.3125 C19.34988281 9.09238281 19.38726562 9.87226562 19.42578125 10.67578125 C18.81570612 14.00600788 17.76681844 15.06629646 15 17 C12.2317375 17.29449601 9.98597978 17.38343363 7.25 17.25 C4.8575 17.1675 2.465 17.085 0 17 C0 11.39 0 5.78 0 0 Z " fill="#F0F3EF" transform="translate(339,661)"/>
<path d="M0 0 C2.3515625 0.41015625 2.3515625 0.41015625 4.9765625 1.91015625 C6.9309623 5.46361042 6.8903311 8.4428602 6.3515625 12.41015625 C5.5143591 15.06130034 4.87941106 16.01915732 2.6640625 17.66015625 C-1.83461141 19.11918563 -5.33088755 19.05491474 -9.5859375 16.97265625 C-12.20383026 13.72012282 -12.32732538 11.6929259 -12.05078125 7.60546875 C-10.74012285 0.45410932 -6.47321378 -0.37235301 0 0 Z " fill="#F8F9F7" transform="translate(425.6484375,671.58984375)"/>
<path d="M0 0 C2.76474812 2.76474812 2.99194062 3.91537652 3.375 7.9375 C3.18386301 11.73192325 2.77871748 14.22128252 0 17 C-2.99697814 17.712048 -5.92588648 17.92910849 -9 18 C-9 17.34 -9 16.68 -9 16 C-11.475 15.01 -11.475 15.01 -14 14 C-14.60736196 5.1595092 -14.60736196 5.1595092 -12.625 1.375 C-8.63409959 -0.71547164 -4.39600278 -0.99809078 0 0 Z " fill="#508859" transform="translate(524,543)"/>
<path d="M0 0 C2.72246943 2.12485419 3.73121981 3.57122111 4.37109375 6.97265625 C4.57582272 10.2917471 4.2198665 12.61762348 2.5625 15.5 C-1.25341536 17.73370655 -4.69319927 17.89296969 -9 17 C-11.72246943 14.87514581 -12.73121981 13.42877889 -13.37109375 10.02734375 C-13.57582272 6.7082529 -13.2198665 4.38237652 -11.5625 1.5 C-7.74658464 -0.73370655 -4.30680073 -0.89296969 0 0 Z " fill="#F2F5F1" transform="translate(605,671)"/>
<path d="M0 0 C1.65 0 3.3 0 5 0 C5 8.58 5 17.16 5 26 C6.98 26 8.96 26 11 26 C11.66 26.33 12.32 26.66 13 27 C12 30 12 30 10.0625 31.125 C9.381875 31.41375 8.70125 31.7025 8 32 C7.01 32.495 7.01 32.495 6 33 C5.53476937 34.89533342 5.53476937 34.89533342 5.375 37.0625 C5.25125 38.361875 5.1275 39.66125 5 41 C3.35 41 1.7 41 0 41 C0 27.47 0 13.94 0 0 Z " fill="#728A73" transform="translate(483,654)"/>
<path d="M0 0 C0.66 0 1.32 0 2 0 C2.42152344 1.21558594 2.84304687 2.43117188 3.27734375 3.68359375 C3.83057808 5.26828192 4.38397172 6.85291448 4.9375 8.4375 C5.21529297 9.23994141 5.49308594 10.04238281 5.77929688 10.86914062 C6.18051758 12.01479492 6.18051758 12.01479492 6.58984375 13.18359375 C6.83597412 13.89056396 7.08210449 14.59753418 7.33569336 15.32592773 C7.87467975 17.00682632 7.87467975 17.00682632 9 18 C9 19.65 9 21.3 9 23 C3.39 23 -2.22 23 -8 23 C-7.33199903 19.65999514 -6.75990899 17.07727907 -5.5625 14 C-5.29695312 13.31292969 -5.03140625 12.62585938 -4.7578125 11.91796875 C-3.84551736 9.60901558 -2.93275117 7.30078621 -2 5 C-1.62875 4.071875 -1.2575 3.14375 -0.875 2.1875 C-0.441875 1.1046875 -0.441875 1.1046875 0 0 Z " fill="#E2ECE4" transform="translate(217,569)"/>
<path d="M0 0 C1.32 0 2.64 0 4 0 C4.33 0.99 4.66 1.98 5 3 C7.01508358 3.73323796 7.01508358 3.73323796 9 4 C7.125 7.875 7.125 7.875 6 9 C5.79122073 14.11509204 6.29130228 18.95052873 7 24 C6.34 24 5.68 24 5 24 C5 28.95 5 33.9 5 39 C3.35 39 1.7 39 0 39 C0 26.13 0 13.26 0 0 Z " fill="#768E77" transform="translate(408,667)"/>
<path d="M0 0 C0.33 0 0.66 0 1 0 C1 7.59 1 15.18 1 23 C-1.31 23 -3.62 23 -6 23 C-6 22.34 -6 21.68 -6 21 C-6.99 21.66 -7.98 22.32 -9 23 C-12.13671875 23.1953125 -12.13671875 23.1953125 -15.6875 23.125 C-17.45673828 23.09792969 -17.45673828 23.09792969 -19.26171875 23.0703125 C-20.16535156 23.04710937 -21.06898438 23.02390625 -22 23 C-22.33 22.34 -22.66 21.68 -23 21 C-19.37 21 -15.74 21 -12 21 C-13.134375 20.87625 -14.26875 20.7525 -15.4375 20.625 C-16.613125 20.41875 -17.78875 20.2125 -19 20 C-20.38125018 17.23749964 -20.19079306 15.05268901 -20 12 C-18 10 -18 10 -14.9609375 9.8046875 C-13.18589844 9.83949219 -13.18589844 9.83949219 -11.375 9.875 C-9.59222656 9.90207031 -9.59222656 9.90207031 -7.7734375 9.9296875 C-6.85820313 9.95289063 -5.94296875 9.97609375 -5 10 C-3.875 15.75 -3.875 15.75 -5 18 C-5 19.32 -5 20.64 -5 22 C-3.35 22 -1.7 22 0 22 C0 14.74 0 7.48 0 0 Z " fill="#98AA98" transform="translate(686,673)"/>
<path d="M0 0 C1.98 0 3.96 0 6 0 C6 9.57 6 19.14 6 29 C4.35 29 2.7 29 1 29 C1 27.68 1 26.36 1 25 C-0.32 25 -1.64 25 -3 25 C-2.68289063 24.03964844 -2.36578125 23.07929687 -2.0390625 22.08984375 C-0.75872164 17.60865075 -0.55434226 13.19924466 -0.375 8.5625 C-0.33632813 7.73556641 -0.29765625 6.90863281 -0.2578125 6.05664062 C-0.16446908 4.03808927 -0.08119039 2.01907669 0 0 Z " fill="#799079" transform="translate(466,666)"/>
<path d="M0 0 C1.98 0 3.96 0 6 0 C6 9.9 6 19.8 6 30 C4.02 30 2.04 30 0 30 C0 20.1 0 10.2 0 0 Z " fill="#7E947F" transform="translate(625,666)"/>
<path d="M0 0 C1.98 0 3.96 0 6 0 C6 9.9 6 19.8 6 30 C4.02 30 2.04 30 0 30 C0 20.1 0 10.2 0 0 Z " fill="#7B937D" transform="translate(573,666)"/>
<path d="M0 0 C1.32 0.66 2.64 1.32 4 2 C4 3.32 4 4.64 4 6 C2.36935236 7.05771739 0.69719127 8.05273046 -1 9 C-3.6927697 11.59991557 -3.9827353 12.75397804 -4.25 16.5625 C-4.14342099 19.98070596 -4.14342099 19.98070596 -3 23 C-0.36 23.33 2.28 23.66 5 24 C7.00050563 22.08284877 7.94334658 20.61541161 8.19921875 17.8359375 C8.18805615 15.55132571 8.11345033 13.28161227 8 11 C8 10.01 8 9.02 8 8 C11.06211867 11.06211867 11.16240112 14.22545405 11.25 18.4375 C11.27578125 19.17871094 11.3015625 19.91992188 11.328125 20.68359375 C10.88475326 23.8135871 10.01293398 25.55905268 8 28 C5.22265625 28.62890625 5.22265625 28.62890625 2.0625 28.5625 C0.50208984 28.56443359 0.50208984 28.56443359 -1.08984375 28.56640625 C-4.69924446 27.86390544 -5.88698561 26.99218823 -8 24 C-8.53125 21.125 -8.53125 21.125 -8.5 18 C-8.5103125 16.96875 -8.520625 15.9375 -8.53125 14.875 C-7.87886335 11.34443694 -6.62829741 10.3511135 -4 8 C-2.96215245 6.16482992 -2.96215245 6.16482992 -2.3125 4.3125 C-1 1 -1 1 0 0 Z " fill="#0F87BE" transform="translate(633,349)"/>
<path d="M0 0 C1.75570313 0.04060547 1.75570313 0.04060547 3.546875 0.08203125 C4.43890625 0.11683594 5.3309375 0.15164063 6.25 0.1875 C6.40625 5.8984375 6.40625 5.8984375 5 8.5 C2.00242291 11.39052076 -0.87294401 11.25197115 -4.875 11.375 C-8.75 11.1875 -8.75 11.1875 -10.75 9.1875 C-11.125 6.25 -11.125 6.25 -10.75 3.1875 C-7.46904123 -0.25350554 -4.59119272 -0.13773578 0 0 Z " fill="#E3EEE4" transform="translate(433.75,593.8125)"/>
<path d="M0 0 C2.35323173 3.67692458 2.43676496 6.70514454 2 11 C0.56608319 14.967713 -1.26769346 17.44205216 -4.625 20 C-9.27342085 21.37730988 -13.26989244 20.77588721 -18 20 C-18.33 18.68 -18.66 17.36 -19 16 C-18.28972656 15.95101562 -17.57945312 15.90203125 -16.84765625 15.8515625 C-15.46900391 15.73941406 -15.46900391 15.73941406 -14.0625 15.625 C-13.14597656 15.55539062 -12.22945313 15.48578125 -11.28515625 15.4140625 C-10.15400391 15.20910156 -10.15400391 15.20910156 -9 15 C-8.67 14.34 -8.34 13.68 -8 13 C-7.34 13 -6.68 13 -6 13 C-5.896875 12.443125 -5.79375 11.88625 -5.6875 11.3125 C-4.85821592 8.5230899 -3.65700944 6.3860936 -2 4 C-1.34 4 -0.68 4 0 4 C0 2.68 0 1.36 0 0 Z " fill="#79917A" transform="translate(436,675)"/>
<path d="M0 0 C4.35825539 1.36195481 7.43553214 3.73833237 10.9375 6.5625 C12.94535981 8.0872255 12.94535981 8.0872255 15.30859375 8.87109375 C19.64664508 10.69068277 23.17232765 13.64238105 26.91601562 16.45507812 C29.92924504 18.67346648 32.33323905 20.26146158 36 21 C36.0825 21.61875 36.165 22.2375 36.25 22.875 C36.81258459 25.18437567 36.81258459 25.18437567 39.0625 26.25 C39.701875 26.4975 40.34125 26.745 41 27 C36.75354935 27 34.61475228 25.18249194 31 23 C31.66 24.32 32.32 25.64 33 27 C29.67358844 25.54562723 27.47709549 23.70099367 24.875 21.1875 C19.3053132 16.03658665 13.22021448 11.73544156 6.98193359 7.43041992 C6.22348145 6.89908447 5.4650293 6.36774902 4.68359375 5.8203125 C3.99837646 5.34867676 3.31315918 4.87704102 2.60717773 4.39111328 C1 3 1 3 0 0 Z " fill="#AFD09F" transform="translate(385,381)"/>
<path d="M0 0 C0.66 0 1.32 0 2 0 C2 16.83 2 33.66 2 51 C-4.27 51 -10.54 51 -17 51 C-17 49.35 -17 47.7 -17 46 C-18.65 46.66 -20.3 47.32 -22 48 C-20.38405168 45.95880212 -18.7143618 43.95927063 -17 42 C-16.34 42 -15.68 42 -15 42 C-15 44.64 -15 47.28 -15 50 C-10.05 50 -5.1 50 0 50 C0 33.5 0 17 0 0 Z " fill="#C3D5C6" transform="translate(362,566)"/>
<path d="M0 0 C1.32 0.66 2.64 1.32 4 2 C4 3.32 4 4.64 4 6 C2.35 6.33 0.7 6.66 -1 7 C-1.33 7.99 -1.66 8.98 -2 10 C-2.66 10 -3.32 10 -4 10 C-4.05410687 11.77049689 -4.09284119 13.54146849 -4.125 15.3125 C-4.15980469 16.79169922 -4.15980469 16.79169922 -4.1953125 18.30078125 C-4.20682639 21.22406527 -4.20682639 21.22406527 -2 24 C1.56769552 24.73606499 1.56769552 24.73606499 5 25 C5 24.34 5 23.68 5 23 C5.99 23.33 6.98 23.66 8 24 C7.34 25.32 6.68 26.64 6 28 C-2.00826446 28.78512397 -2.00826446 28.78512397 -6 25.625 C-9.39842488 21.16456735 -9.72434155 17.51690276 -9 12 C-7.25 9.875 -7.25 9.875 -5 8 C-3.54605726 5.72536484 -2.29703949 3.37045147 -1 1 C-0.67 0.67 -0.34 0.34 0 0 Z " fill="#389AC5" transform="translate(594,349)"/>
<path d="M0 0 C2.31 0 4.62 0 7 0 C7 0.99 7 1.98 7 3 C7.99 2.67 8.98 2.34 10 2 C10 2.66 10 3.32 10 4 C12.97 4.33 15.94 4.66 19 5 C19 5.33 19 5.66 19 6 C16.36 6 13.72 6 11 6 C9.03698408 9.50538557 8.04097612 13.13351728 7 17 C6.67 17 6.34 17 6 17 C5.66707415 12.75519536 5.56114128 10.64457375 8 7.0625 C8.66 6.381875 9.32 5.70125 10 5 C8.35 4.67 6.7 4.34 5 4 C5 3.01 5 2.02 5 1 C3.68 1 2.36 1 1 1 C1 13.87 1 26.74 1 40 C2.65 40 4.3 40 6 40 C6 35.05 6 30.1 6 25 C6.66 25 7.32 25 8 25 C8.33 23.68 8.66 22.36 9 21 C9.99 21.66 10.98 22.32 12 23 C14.28648848 23.24107326 14.28648848 23.24107326 16.6875 23.125 C17.49574219 23.10695313 18.30398438 23.08890625 19.13671875 23.0703125 C19.75160156 23.04710937 20.36648438 23.02390625 21 23 C20.67 23.66 20.34 24.32 20 25 C16.7 25 13.4 25 10 25 C10 25.66 10 26.32 10 27 C9.01 27 8.02 27 7 27 C7 31.62 7 36.24 7 41 C4.69 41 2.38 41 0 41 C0 27.47 0 13.94 0 0 Z " fill="#97AB99" transform="translate(407,666)"/>
<path d="M0 0 C4.31013828 0.48303274 6.0235163 1.6017799 8.75 4.9375 C9.34296875 5.64777344 9.9359375 6.35804688 10.546875 7.08984375 C13.38014567 10.81422375 13.10471642 13.48119344 13.0625 18.125 C13.05347656 19.40632812 13.04445313 20.68765625 13.03515625 22.0078125 C13.02355469 22.99523437 13.01195312 23.98265625 13 25 C12.67 25 12.34 25 12 25 C12 21.04 12 17.08 12 13 C10.68 13.33 9.36 13.66 8 14 C8 16.97 8 19.94 8 23 C7.67 23 7.34 23 7 23 C6.98582031 22.33613281 6.97164062 21.67226563 6.95703125 20.98828125 C6.64570256 15.03771761 6.64570256 15.03771761 3.625 10 C-0.98733919 6.48583681 -4.01128754 5.62939608 -9.6875 5.375 C-10.7403418 5.31699219 -10.7403418 5.31699219 -11.81445312 5.2578125 C-13.54254655 5.1637666 -15.27123675 5.0808032 -17 5 C-17 4.67 -17 4.34 -17 4 C-11.06 4 -5.12 4 1 4 C0.67 2.68 0.34 1.36 0 0 Z " fill="#7F9881" transform="translate(553,657)"/>
<path d="M0 0 C3.320625 -0.0825 6.64125 -0.165 10.0625 -0.25 C11.09511963 -0.28641602 12.12773926 -0.32283203 13.19165039 -0.36035156 C19.37391578 -0.43429783 22.96462199 0.35738612 28 4 C29.9375 6.25 29.9375 6.25 31 8 C30.01 8.33 29.02 8.66 28 9 C27.67 11.31 27.34 13.62 27 16 C26.67 16 26.34 16 26 16 C25.6596875 14.329375 25.6596875 14.329375 25.3125 12.625 C24.39376342 8.83961627 24.39376342 8.83961627 21.375 7.5625 C20.59125 7.376875 19.8075 7.19125 19 7 C19.66 5.68 20.32 4.36 21 3 C14.4 2.34 7.8 1.68 1 1 C1 14.2 1 27.4 1 41 C0.67 41 0.34 41 0 41 C0 27.47 0 13.94 0 0 Z " fill="#9BAD9D" transform="translate(332,655)"/>
<path d="M0 0 C1.32 0 2.64 0 4 0 C4 9.24 4 18.48 4 28 C2.35 28 0.7 28 -1 28 C-1 26.35 -1 24.7 -1 23 C-1.66 22.67 -2.32 22.34 -3 22 C-2.67854004 21.42926758 -2.35708008 20.85853516 -2.02587891 20.27050781 C-0.95230161 17.89443242 -0.69680791 16.25885128 -0.5859375 13.671875 C-0.54726563 12.87265625 -0.50859375 12.0734375 -0.46875 11.25 C-0.4378125 10.425 -0.406875 9.6 -0.375 8.75 C-0.33632813 7.90953125 -0.29765625 7.0690625 -0.2578125 6.203125 C-0.16384164 4.13576618 -0.08084436 2.06791373 0 0 Z " fill="#6E866F" transform="translate(393,667)"/>
<path d="M0 0 C0.69287109 0.02255859 1.38574219 0.04511719 2.09960938 0.06835938 C3.79651573 0.12687339 5.49229861 0.2165452 7.1875 0.3125 C7.1875 0.6425 7.1875 0.9725 7.1875 1.3125 C6.18847656 1.37308594 5.18945312 1.43367187 4.16015625 1.49609375 C2.86980469 1.57988281 1.57945312 1.66367187 0.25 1.75 C-1.03777344 1.83121094 -2.32554687 1.91242187 -3.65234375 1.99609375 C-6.67273957 1.96169188 -6.67273957 1.96169188 -7.8125 3.3125 C-2.8625 3.6425 2.0875 3.9725 7.1875 4.3125 C7.1875 4.6425 7.1875 4.9725 7.1875 5.3125 C5.90552734 5.40337891 5.90552734 5.40337891 4.59765625 5.49609375 C3.49292969 5.57988281 2.38820313 5.66367187 1.25 5.75 C0.14785156 5.83121094 -0.95429687 5.91242187 -2.08984375 5.99609375 C-4.72359903 6.01668084 -4.72359903 6.01668084 -5.8125 7.3125 C-5.88398199 8.66493917 -5.89649454 10.02084367 -5.875 11.375 C-5.854375 12.674375 -5.83375 13.97375 -5.8125 15.3125 C-2.8425 15.3125 0.1275 15.3125 3.1875 15.3125 C0.7933839 17.7066161 0.14963689 17.60848923 -3.125 17.625 C-7.13812343 17.49554441 -9.94169935 17.3685136 -12.8125 14.3125 C-13.54589285 11.16679019 -13.69190806 8.42663911 -12.8125 5.3125 C-9.10694821 0.30824053 -5.9439421 -0.36971889 0 0 Z " fill="#8CA08D" transform="translate(672.8125,677.6875)"/>
<path d="M0 0 C5.44026366 -0.02502598 10.88049259 -0.0430116 16.32080078 -0.05493164 C18.16520777 -0.05990958 20.00961093 -0.06669434 21.85400391 -0.07543945 C36.75852506 -0.14425446 51.19174342 0.18880594 65.875 3.0625 C66.86113281 3.24876953 67.84726562 3.43503906 68.86328125 3.62695312 C71.24362851 4.07760139 73.6223714 4.53526113 76 5 C76 5.33 76 5.66 76 6 C69.70919668 6.1616631 64.11049077 5.42859242 57.97070312 4.15429688 C45.394166 1.71974531 32.33826956 1.80822883 19.5625 1.4375 C18.13736226 1.39412695 16.71223198 1.35050811 15.28710938 1.30664062 C11.85815367 1.20161157 8.42911103 1.09984585 5 1 C4.67 2.32 4.34 3.64 4 5 C3.34 5 2.68 5 2 5 C2.350625 6.0725 2.70125 7.145 3.0625 8.25 C3.94680186 11.78720743 4.02880551 12.74811124 3 16 C2.49193553 14.27318563 1.99389533 12.54342021 1.5 10.8125 C1.08234375 9.36810547 1.08234375 9.36810547 0.65625 7.89453125 C0.03047092 5.13439851 -0.04974903 2.81289292 0 0 Z " fill="#B4D697" transform="translate(355,362)"/>
<path d="M0 0 C2.31 0 4.62 0 7 0 C7 9.9 7 19.8 7 30 C4.69 30 2.38 30 0 30 C-0.33 29.34 -0.66 28.68 -1 28 C-2.32 28.33 -3.64 28.66 -5 29 C-4.67 27.68 -4.34 26.36 -4 25 C-6.64 25 -9.28 25 -12 25 C-12 24.67 -12 24.34 -12 24 C-9.02148438 23.8046875 -9.02148438 23.8046875 -6.04296875 23.609375 C-3.91469592 23.12121428 -3.91469592 23.12121428 -2.28125 21.5625 C-0.29569646 17.59139292 -0.42582313 13.63398616 -0.3125 9.25 C-0.27833984 8.36183594 -0.24417969 7.47367188 -0.20898438 6.55859375 C-0.12671286 4.37252197 -0.05749828 2.18684049 0 0 Z M2 1 C1.95101563 2.24136719 1.90203125 3.48273437 1.8515625 4.76171875 C1.77650201 6.40366694 1.70095561 8.04559297 1.625 9.6875 C1.5940625 10.50412109 1.563125 11.32074219 1.53125 12.16210938 C1.32044076 16.50126633 0.98261241 20.04283457 -1 24 C-0.34 24 0.32 24 1 24 C1 25.65 1 27.3 1 29 C2.65 29 4.3 29 6 29 C6 19.76 6 10.52 6 1 C4.68 1 3.36 1 2 1 Z " fill="#92A794" transform="translate(391,666)"/>
<path d="M0 0 C0.86083122 14.86368578 0.86083122 14.86368578 -2.375 19.4375 C-5 22 -5 22 -7 22 C-7 21.34 -7 20.68 -7 20 C-7.99 19.67 -8.98 19.34 -10 19 C-8.02 14.545 -8.02 14.545 -6 10 C-5.34 10 -4.68 10 -4 10 C-4 7.03 -4 4.06 -4 1 C-2 0 -2 0 0 0 Z " fill="#758F7A" transform="translate(565,670)"/>
<path d="M0 0 C2.6491912 3.48081432 5.17990471 7.04157835 7.6875 10.625 C8.10322266 11.21023438 8.51894531 11.79546875 8.94726562 12.3984375 C12 16.76951201 12 16.76951201 12 19 C9.69 19 7.38 19 5 19 C4.34 17.35 3.68 15.7 3 14 C2.34 14 1.68 14 1 14 C-0.98 10.535 -0.98 10.535 -3 7 C-2.2575 6.38125 -2.2575 6.38125 -1.5 5.75 C0.43386092 3.87797662 0.43386092 3.87797662 0 0 Z " fill="#839A86" transform="translate(498,677)"/>
<path d="M0 0 C3.3726934 1.39559727 5.08045102 2.8921588 7 6 C8.36289922 9.59309793 8.2666323 13.20048977 8 17 C6.84360194 19.31279611 5.82590172 21.17409828 4 23 C2.48071962 23.07179964 0.95832518 23.08392007 -0.5625 23.0625 C-1.38878906 23.05347656 -2.21507812 23.04445313 -3.06640625 23.03515625 C-4.02353516 23.01775391 -4.02353516 23.01775391 -5 23 C-4.505 21.515 -4.505 21.515 -4 20 C-1.38502661 18.76132839 1.25511949 17.91496017 4 17 C3.71561048 15.10306139 3.42216208 13.20747973 3.125 11.3125 C2.88136719 9.72888672 2.88136719 9.72888672 2.6328125 8.11328125 C2.04106931 5.20205086 1.1968194 2.71044393 0 0 Z " fill="#38A4CC" transform="translate(502,324)"/>
<path d="M0 0 C5.28 0 10.56 0 16 0 C16 16.5 16 33 16 50 C15.67 50 15.34 50 15 50 C15 33.83 15 17.66 15 1 C10.38 1 5.76 1 1 1 C1 11.23 1 21.46 1 32 C-0.485 32.495 -0.485 32.495 -2 33 C-1.67 32.01 -1.34 31.02 -1 30 C-0.84854901 27.7174301 -0.75113021 25.43112294 -0.68359375 23.14453125 C-0.66281265 22.48289474 -0.64203156 21.82125824 -0.62062073 21.13957214 C-0.55535273 19.03065148 -0.49634656 16.92160865 -0.4375 14.8125 C-0.39429311 13.38084685 -0.35067812 11.94920596 -0.30664062 10.51757812 C-0.19892815 7.01184204 -0.09968692 3.50601025 0 0 Z " fill="#417C4C" transform="translate(346,566)"/>
<path d="M0 0 C1.65322266 0.01740234 1.65322266 0.01740234 3.33984375 0.03515625 C4.99693359 0.04869141 4.99693359 0.04869141 6.6875 0.0625 C7.54214844 0.07410156 8.39679687 0.08570313 9.27734375 0.09765625 C9.27734375 1.74765625 9.27734375 3.39765625 9.27734375 5.09765625 C8.28734375 5.42765625 7.29734375 5.75765625 6.27734375 6.09765625 C6.27734375 6.75765625 6.27734375 7.41765625 6.27734375 8.09765625 C4.81941491 8.15165361 3.36091663 8.19044802 1.90234375 8.22265625 C1.09023438 8.24585938 0.278125 8.2690625 -0.55859375 8.29296875 C-2.72265625 8.09765625 -2.72265625 8.09765625 -4.72265625 6.09765625 C-3.996521 0.14334724 -3.996521 0.14334724 0 0 Z " fill="#F0F3EE" transform="translate(670.72265625,682.90234375)"/>
<path d="M0 0 C0 1.98 0 3.96 0 6 C0.66 6 1.32 6 2 6 C2.763125 6.804375 3.52625 7.60875 4.3125 8.4375 C7.07654563 11.07298537 8.28837448 11.68186067 12 12 C11.67 12.99 11.34 13.98 11 15 C2.42113483 15.89953149 2.42113483 15.89953149 -0.77734375 13.875 C-3.06432313 11.32949252 -3.97393911 9.16613815 -4.5 5.8125 C-4.04811531 3.27064864 -3.19595591 0 0 0 Z " fill="#788F7A" transform="translate(591,677)"/>
<path d="M0 0 C-2.3078491 1.15392455 -4.47230331 1.53437166 -7 2 C-7 2.99 -7 3.98 -7 5 C-11.62 5 -16.24 5 -21 5 C-21 3.35 -21 1.7 -21 0 C-14.14376417 -2.38477768 -6.55571211 -3.79779184 0 0 Z " fill="#8CA18E" transform="translate(684,668)"/>
<path d="M0 0 C0.66 0 1.32 0 2 0 C3.8243585 6.99337426 4.30634385 13.41298753 4.25 20.625 C4.25773438 21.62273437 4.26546875 22.62046875 4.2734375 23.6484375 C4.25338899 31.22677454 3.06708882 37.02130757 -0.125 43.9375 C-0.47820313 44.70964844 -0.83140625 45.48179687 -1.1953125 46.27734375 C-1.46085938 46.84582031 -1.72640625 47.41429687 -2 48 C-2.33 47.34 -2.66 46.68 -3 46 C-2.29504074 44.17351465 -1.5848941 42.34735543 -0.7890625 40.55859375 C1.40396007 33.44755522 1.15702975 25.80968092 1.125 18.4375 C1.12886719 17.54353516 1.13273438 16.64957031 1.13671875 15.72851562 C1.1289147 10.39444628 0.77596963 5.27782516 0 0 Z " fill="#CFE4BC" transform="translate(539,457)"/>
<path d="M0 0 C2.31 0 4.62 0 7 0 C7.33 2.31 7.66 4.62 8 7 C10.31 7 12.62 7 15 7 C15 7.66 15 8.32 15 9 C8.84765625 9.09765625 8.84765625 9.09765625 7 9 C6 8 6 8 5.9375 4.4375 C5.958125 3.303125 5.97875 2.16875 6 1 C4.35 1 2.7 1 1 1 C1 11.56 1 22.12 1 33 C0.67 33 0.34 33 0 33 C0 26.73 0 20.46 0 14 C-1.32 14 -2.64 14 -4 14 C-4 12.02 -4 10.04 -4 8 C-2.68 8 -1.36 8 0 8 C0 5.36 0 2.72 0 0 Z " fill="#A5B7A6" transform="translate(641,658)"/>
<path d="M0 0 C3 2 3 2 3.671875 3.84765625 C4.01013419 6.06647545 4.20332159 8.19304628 4.25 10.4375 C4.27578125 11.17871094 4.3015625 11.91992188 4.328125 12.68359375 C3.88475326 15.8135871 3.01293398 17.55905268 1 20 C-1.77734375 20.62890625 -1.77734375 20.62890625 -4.9375 20.5625 C-6.49791016 20.56443359 -6.49791016 20.56443359 -8.08984375 20.56640625 C-11.70220258 19.8633297 -12.89559891 19.00414503 -15 16 C-15.4609375 13.0546875 -15.4609375 13.0546875 -15.375 9.875 C-15.36210938 8.82054687 -15.34921875 7.76609375 -15.3359375 6.6796875 C-15 4 -15 4 -13 2 C-13.03480469 2.90363281 -13.06960938 3.80726563 -13.10546875 4.73828125 C-13.13253906 5.91777344 -13.15960937 7.09726562 -13.1875 8.3125 C-13.22230469 9.48425781 -13.25710938 10.65601563 -13.29296875 11.86328125 C-13.247763 14.93308169 -13.247763 14.93308169 -11.78125 16.90625 C-9.47945158 18.319635 -7.99432631 18.30410114 -5.3125 18.1875 C-4.50425781 18.16042969 -3.69601562 18.13335937 -2.86328125 18.10546875 C-1.94095703 18.05326172 -1.94095703 18.05326172 -1 18 C-0.7834375 17.071875 -0.7834375 17.071875 -0.5625 16.125 C0 14 0 14 1 12 C1.0952699 10.52331663 1.12985959 9.04224543 1.125 7.5625 C1.12757813 6.78003906 1.13015625 5.99757813 1.1328125 5.19140625 C1.08382548 2.82104653 1.08382548 2.82104653 0 0 Z " fill="#65B8D5" transform="translate(640,357)"/>
<path d="M0 0 C0.33 0.99 0.66 1.98 1 3 C0.67 3.33 0.34 3.66 0 4 C-0.07205511 5.68608966 -0.08386068 7.37500659 -0.0625 9.0625 C-0.05347656 9.98160156 -0.04445313 10.90070313 -0.03515625 11.84765625 C-0.02355469 12.55792969 -0.01195312 13.26820313 0 14 C1.98567708 13.96744792 3.97135417 13.93489583 5.95703125 13.90234375 C8 14 8 14 11 15 C11 15.99 11 16.98 11 18 C9.23050905 18.10815225 7.45912513 18.18566083 5.6875 18.25 C4.70136719 18.29640625 3.71523438 18.3428125 2.69921875 18.390625 C0 18 0 18 -1.83203125 16.26171875 C-3.74967443 12.54828931 -3.56601889 9.07823867 -3 5 C-1.5 1.9375 -1.5 1.9375 0 0 Z " fill="#1088BC" transform="translate(629,418)"/>
<path d="M0 0 C2 2 2 2 2.265625 4.49609375 C2.26046875 5.46675781 2.2553125 6.43742187 2.25 7.4375 C2.25515625 8.40558594 2.2603125 9.37367188 2.265625 10.37109375 C2 13 2 13 0 16 C-3.53762874 17.44125615 -7.24390555 17.32948197 -11 17 C-13.9375 15 -13.9375 15 -16 13 C-15.67 12.34 -15.34 11.68 -15 11 C-14.34 11.66 -13.68 12.32 -13 13 C-10.91630404 13.09827516 -10.91630404 13.09827516 -8.625 12.75 C-7.46871094 12.61851562 -7.46871094 12.61851562 -6.2890625 12.484375 C-3.61958009 12.02009097 -3.61958009 12.02009097 0 10 C0 6.7 0 3.4 0 0 Z " fill="#4AA7CE" transform="translate(583,391)"/>
<path d="M0 0 C0.33 0 0.66 0 1 0 C1 9.9 1 19.8 1 30 C-1.31 30 -3.62 30 -6 30 C-6 28.68 -6 27.36 -6 26 C-6.928125 26.99 -6.928125 26.99 -7.875 28 C-12.24240721 30.79514062 -15.95182061 30.35288244 -21 30 C-21 29.67 -21 29.34 -21 29 C-17.37 28.67 -13.74 28.34 -10 28 C-10.33 27.34 -10.66 26.68 -11 26 C-14.02934491 25.34227572 -14.02934491 25.34227572 -17 25 C-17 24.67 -17 24.34 -17 24 C-14.03 23.34 -11.06 22.68 -8 22 C-8.33 22.99 -8.66 23.98 -9 25 C-7.68 25 -6.36 25 -5 25 C-5 26.32 -5 27.64 -5 29 C-3.35 29 -1.7 29 0 29 C0 19.43 0 9.86 0 0 Z " fill="#A0B1A1" transform="translate(472,666)"/>
<path d="M0 0 C0.66 0 1.32 0 2 0 C2 10.56 2 21.12 2 32 C2.66 32.33 3.32 32.66 4 33 C2.68 33.66 1.36 34.32 0 35 C0 23.45 0 11.9 0 0 Z " fill="#C0D2C4" transform="translate(274,547)"/>
<path d="M0 0 C1.55521077 3.11042154 0.96425701 6.26364711 0.83984375 9.6875 C0.75938638 12.19709447 0.75938638 12.19709447 3 14 C6.81383012 14.4237589 9.07896862 14.66518933 12.25 12.375 C14.21165156 9.71275859 15.6332064 7.00694593 17 4 C17.33 4 17.66 4 18 4 C17.82033321 8.2042029 17.64606219 11.84832392 15.5625 15.5625 C11.60769281 17.78105038 7.41467955 17.96217375 3 17 C0.70703125 15.35546875 0.70703125 15.35546875 -1 13 C-1.42578125 10.01953125 -1.42578125 10.01953125 -1.3125 6.8125 C-1.28800781 5.74644531 -1.26351562 4.68039062 -1.23828125 3.58203125 C-1 1 -1 1 0 0 Z " fill="#4EAACE" transform="translate(548,360)"/>
<path d="M0 0 C1.32 0.66 2.64 1.32 4 2 C4 3.32 4 4.64 4 6 C2.35 6.33 0.7 6.66 -1 7 C-1.33 7.99 -1.66 8.98 -2 10 C-2.66 10 -3.32 10 -4 10 C-4 10.66 -4 11.32 -4 12 C-4.99 12.495 -4.99 12.495 -6 13 C-6.46751788 15.35599235 -6.46751788 15.35599235 -6.625 18.0625 C-6.69976563 18.98160156 -6.77453125 19.90070313 -6.8515625 20.84765625 C-6.90054688 21.55792969 -6.94953125 22.26820313 -7 23 C-9.39286884 20.60713116 -9.32050616 19.90552906 -9.375 16.625 C-9.2794599 12.33934417 -9.2794599 12.33934417 -7.25 9.875 C-6.5075 9.25625 -5.765 8.6375 -5 8 C-3.54605726 5.72536484 -2.29703949 3.37045147 -1 1 C-0.67 0.67 -0.34 0.34 0 0 Z " fill="#4BACD4" transform="translate(594,349)"/>
<path d="M0 0 C0.33 0 0.66 0 1 0 C1 12.54 1 25.08 1 38 C-4.28 38 -9.56 38 -15 38 C-15.33 36.68 -15.66 35.36 -16 34 C-16.66 33.67 -17.32 33.34 -18 33 C-16.68 32.34 -15.36 31.68 -14 31 C-14 32.98 -14 34.96 -14 37 C-9.38 37 -4.76 37 0 37 C0 24.79 0 12.58 0 0 Z " fill="#6F9F78" transform="translate(454,579)"/>
<path d="M0 0 C3.65316671 1.24976756 4.78065836 1.67098753 7 5 C7.1953125 7.48046875 7.1953125 7.48046875 7.125 10.1875 C7.10695313 11.08855469 7.08890625 11.98960937 7.0703125 12.91796875 C7.03550781 13.94857422 7.03550781 13.94857422 7 15 C6.67 15 6.34 15 6 15 C5.67 13.02 5.34 11.04 5 9 C4.01 9 3.02 9 2 9 C1.34 10.32 0.68 11.64 0 13 C-0.144375 11.9275 -0.28875 10.855 -0.4375 9.75 C-0.87954706 6.20814728 -0.87954706 6.20814728 -1.6875 3.6875 C-1.790625 3.130625 -1.89375 2.57375 -2 2 C-1.34 1.34 -0.68 0.68 0 0 Z " fill="#8AA18B" transform="translate(432,670)"/>
<path d="M0 0 C2.91389368 0.71347054 5.81057162 1.46130962 8.6875 2.3125 C9.47511719 2.53550781 10.26273437 2.75851562 11.07421875 2.98828125 C13 4 13 4 13.640625 6.02734375 C13.75921875 6.67832031 13.8778125 7.32929688 14 8 C15.9837767 9.28436734 15.9837767 9.28436734 18 10 C13.75354935 10 11.61475228 8.18249194 8 6 C8.66 7.32 9.32 8.64 10 10 C6.82028869 8.62442924 4.95149011 7.10041354 2.75 4.4375 C1.96882813 3.50744141 1.96882813 3.50744141 1.171875 2.55859375 C0 1 0 1 0 0 Z " fill="#DAE7D6" transform="translate(408,398)"/>
<path d="M0 0 C2.625 0.375 2.625 0.375 5 1 C5.625 3.375 5.625 3.375 6 6 C4 8 4 8 0.875 8.125 C-0.548125 8.063125 -0.548125 8.063125 -2 8 C-2.125 5.125 -2.125 5.125 -2 2 C-1.34 1.34 -0.68 0.68 0 0 Z " fill="#92A595" transform="translate(626,653)"/>
<path d="M0 0 C3.67420866 0.30618405 4.78135513 0.75771784 7.3125 3.5625 C7.869375 4.366875 8.42625 5.17125 9 6 C8.01 6 7.02 6 6 6 C6 5.34 6 4.68 6 4 C4.02 4.99 4.02 4.99 2 6 C2.66 6 3.32 6 4 6 C3.67 6.99 3.34 7.98 3 9 C2.33613281 8.51917969 1.67226563 8.03835938 0.98828125 7.54296875 C-2.62376172 5.67792695 -5.83345814 5.44576934 -9.8125 5.3125 C-10.85180664 5.26125977 -10.85180664 5.26125977 -11.91210938 5.20898438 C-13.60752849 5.12713656 -15.30373458 5.06187635 -17 5 C-17 4.67 -17 4.34 -17 4 C-11.06 4 -5.12 4 1 4 C0.67 2.68 0.34 1.36 0 0 Z " fill="#97A998" transform="translate(553,657)"/>
<path d="M0 0 C1.9375 0.8125 1.9375 0.8125 4 2 C4.33 2.99 4.66 3.98 5 5 C3.9171875 5.4021875 3.9171875 5.4021875 2.8125 5.8125 C1.884375 6.204375 0.95625 6.59625 0 7 C-0.886875 7.33 -1.77375 7.66 -2.6875 8 C-6.35491816 11.17182111 -6.41509657 15.34696227 -7 20 C-7.33 20 -7.66 20 -8 20 C-8.51332816 14.96938406 -8.59992032 11.19486398 -5.625 6.9375 C-4.75875 5.968125 -3.8925 4.99875 -3 4 C-2.34 4 -1.68 4 -1 4 C-0.67 2.68 -0.34 1.36 0 0 Z " fill="#47A6CF" transform="translate(633,410)"/>
<path d="M0 0 C2.8712936 0.25568326 5.70565708 0.56806088 8.5625 0.9375 C9.36880859 1.03740234 10.17511719 1.13730469 11.00585938 1.24023438 C13.00452132 1.48858882 15.00234487 1.7436731 17 2 C16.01 3.485 16.01 3.485 15 5 C11.37 4.67 7.74 4.34 4 4 C4 4.99 4 5.98 4 7 C2.68 7 1.36 7 0 7 C-0.38133299 5.0085944 -0.71325582 3.00720923 -1 1 C-0.67 0.67 -0.34 0.34 0 0 Z " fill="#94A695" transform="translate(589,698)"/>
<path d="M0 0 C0 3 0 3 -1 5 C-0.34 5.33 0.32 5.66 1 6 C1 6.99 1 7.98 1 9 C-0.8125 10.0625 -0.8125 10.0625 -3 11 C-3.99 10.67 -4.98 10.34 -6 10 C-5.34 10 -4.68 10 -4 10 C-6.84614024 7.15385976 -9.80369142 7.54420924 -13.625 7.375 C-14.33140625 7.33632813 -15.0378125 7.29765625 -15.765625 7.2578125 C-17.50998524 7.16352276 -19.25495691 7.08067109 -21 7 C-21 6.67 -21 6.34 -21 6 C-19.90300781 5.98582031 -18.80601562 5.97164062 -17.67578125 5.95703125 C-16.22131302 5.91011292 -14.76688723 5.86186562 -13.3125 5.8125 C-12.59126953 5.80669922 -11.87003906 5.80089844 -11.12695312 5.79492188 C-6.85767192 5.61947196 -5.38551849 5.32567086 -1.98046875 2.44921875 C-1.32691406 1.64097656 -0.67335938 0.83273437 0 0 Z " fill="#8DA291" transform="translate(557,684)"/>
<path d="M0 0 C0 0.99 0 1.98 0 3 C0.99 3.66 1.98 4.32 3 5 C3.1875 7.625 3.1875 7.625 3 10 C2.67 8.68 2.34 7.36 2 6 C1.01 6 0.02 6 -1 6 C-1.33 6.99 -1.66 7.98 -2 9 C-5.96 9 -9.92 9 -14 9 C-14 8.67 -14 8.34 -14 8 C-10.92382812 7.70703125 -10.92382812 7.70703125 -7.84765625 7.4140625 C-7.23792969 7.27742187 -6.62820313 7.14078125 -6 7 C-5.67 6.34 -5.34 5.68 -5 5 C-6.65 5 -8.3 5 -10 5 C-10 4.67 -10 4.34 -10 4 C-8.906875 3.896875 -7.81375 3.79375 -6.6875 3.6875 C-3.14440371 3.02692273 -2.06756277 2.7972908 0 0 Z " fill="#93A794" transform="translate(608,684)"/>
<path d="M0 0 C4.70588235 0.70588235 4.70588235 0.70588235 6 2 C6.125 4.5 6.125 4.5 6 7 C5 8 5 8 2.5 8.125 C0 8 0 8 -1 7 C-1.125 4 -1.125 4 -1 1 C-0.67 0.67 -0.34 0.34 0 0 Z " fill="#93A395" transform="translate(574,653)"/>
<path d="M0 0 C0.56203125 0.32742188 1.1240625 0.65484375 1.703125 0.9921875 C4.26859964 2.11785494 5.96842277 2.2068111 8.75 2.125 C9.94882812 2.09792969 9.94882812 2.09792969 11.171875 2.0703125 C12.07679688 2.03550781 12.07679688 2.03550781 13 2 C12.67 2.66 12.34 3.32 12 4 C8.7 4 5.4 4 2 4 C2 4.66 2 5.32 2 6 C1.01 6 0.02 6 -1 6 C-1 10.62 -1 15.24 -1 20 C-3.31 20 -5.62 20 -8 20 C-8 19.67 -8 19.34 -8 19 C-6.02 19 -4.04 19 -2 19 C-2 14.05 -2 9.1 -2 4 C-1.34 4 -0.68 4 0 4 C0 2.68 0 1.36 0 0 Z " fill="#A9B7AA" transform="translate(415,687)"/>
<path d="M0 0 C3.2578125 -0.29296875 3.2578125 -0.29296875 7.125 -0.1875 C9.04699219 -0.14689453 9.04699219 -0.14689453 11.0078125 -0.10546875 C11.99523437 -0.07066406 12.98265625 -0.03585937 14 0 C14.33 1.32 14.66 2.64 15 4 C9.39 3.67 3.78 3.34 -2 3 C-1.34 2.01 -0.68 1.02 0 0 Z " fill="#7D927F" transform="translate(666,679)"/>
<path d="M0 0 C1.32 0.66 2.64 1.32 4 2 C4 3.32 4 4.64 4 6 C1.8125 7.5625 1.8125 7.5625 -1 9 C-1.928125 9.556875 -2.85625 10.11375 -3.8125 10.6875 C-4.534375 11.120625 -5.25625 11.55375 -6 12 C-5.731875 11.484375 -5.46375 10.96875 -5.1875 10.4375 C-4.20114111 8.41286859 -3.30853953 6.38762358 -2.4375 4.3125 C-1 1 -1 1 0 0 Z " fill="#1489C2" transform="translate(633,349)"/>
<path d="M0 0 C1.32 0.66 2.64 1.32 4 2 C4 2.99 4 3.98 4 5 C0.87682483 7.23083941 -2.4134946 8.66786942 -6 10 C-4.6302836 6.00499382 -2.74277578 3.19990508 0 0 Z " fill="#2A95C5" transform="translate(594,410)"/>
<path d="M0 0 C0.66 0 1.32 0 2 0 C2 2.64 2 5.28 2 8 C6.95 8 11.9 8 17 8 C17 8.33 17 8.66 17 9 C11.39 9 5.78 9 0 9 C0 7.35 0 5.7 0 4 C-1.65 4.66 -3.3 5.32 -5 6 C-3.38405168 3.95880212 -1.7143618 1.95927063 0 0 Z " fill="#91B496" transform="translate(345,608)"/>
<path d="M0 0 C2.97 0.33 5.94 0.66 9 1 C9 2.65 9 4.3 9 6 C6.36 6 3.72 6 1 6 C0.67 4.02 0.34 2.04 0 0 Z " fill="#899E8A" transform="translate(647,666)"/>
<path d="M0 0 C-1.65 1.98 -3.3 3.96 -5 6 C-5.33 5.01 -5.66 4.02 -6 3 C-6.66 3 -7.32 3 -8 3 C-8 3.99 -8 4.98 -8 6 C-9.65 6.33 -11.3 6.66 -13 7 C-9.87303606 0.02446506 -7.37889653 -0.36289655 0 0 Z " fill="#819883" transform="translate(509,666)"/>
<path d="M0 0 C5.62586863 1.76813014 8.77840563 5.16760844 12 10 C11.34 10 10.68 10 10 10 C9.67 10.99 9.34 11.98 9 13 C7.68227638 11.40012144 6.37098863 9.79494034 5.0625 8.1875 C4.33160156 7.29417969 3.60070312 6.40085937 2.84765625 5.48046875 C1 3 1 3 0 0 Z " fill="#A4D677" transform="translate(496,406)"/>
<path d="M0 0 C2.31 0 4.62 0 7 0 C7.33 2.31 7.66 4.62 8 7 C10.31 7 12.62 7 15 7 C15 7.66 15 8.32 15 9 C8.84765625 9.09765625 8.84765625 9.09765625 7 9 C6 8 6 8 5.9375 4.4375 C5.958125 3.303125 5.97875 2.16875 6 1 C4.35 1 2.7 1 1 1 C1 3.31 1 5.62 1 8 C0.67 8 0.34 8 0 8 C0 5.36 0 2.72 0 0 Z " fill="#C6D3C8" transform="translate(641,658)"/>
<path d="M0 0 C4 4 4 4 4.42578125 6.2890625 C4.38839844 7.05992187 4.35101562 7.83078125 4.3125 8.625 C4.28800781 9.40101563 4.26351562 10.17703125 4.23828125 10.9765625 C4 13 4 13 3 15 C2.01 14.67 1.02 14.34 0 14 C0 9.38 0 4.76 0 0 Z " fill="#1089BD" transform="translate(600,358)"/>
<path d="M0 0 C5.52449339 4.50143906 8.93951675 11.61619159 9.8125 18.625 C9.874375 19.73875 9.93625 20.8525 10 22 C8 18.25 8 18.25 8 16 C7.34 16 6.68 16 6 16 C5.73445312 15.26394531 5.46890625 14.52789062 5.1953125 13.76953125 C4.84210937 12.79371094 4.48890625 11.81789063 4.125 10.8125 C3.60292969 9.36810547 3.60292969 9.36810547 3.0703125 7.89453125 C2.09009512 5.24365141 1.06279566 2.6186902 0 0 Z " fill="#D8EDC4" transform="translate(528,429)"/>
<path d="M0 0 C0 0.33 0 0.66 0 1 C-6.19518473 0.58411954 -11.26689311 -0.60251894 -17 -3 C-11.50433088 -6.80469401 -5.4446937 -2.39566523 0 0 Z " fill="#7CB75F" transform="translate(464,510)"/>
<path d="M0 0 C0.33 0.99 0.66 1.98 1 3 C-0.77444972 5.24606427 -1.58352485 5.95081002 -4.48046875 6.29296875 C-5.82044922 6.24076172 -5.82044922 6.24076172 -7.1875 6.1875 C-8.53908203 6.14689453 -8.53908203 6.14689453 -9.91796875 6.10546875 C-10.60503906 6.07066406 -11.29210937 6.03585937 -12 6 C-11.67 5.01 -11.34 4.02 -11 3 C-10.28972656 2.86722656 -9.57945312 2.73445313 -8.84765625 2.59765625 C-7.92855469 2.42105469 -7.00945313 2.24445313 -6.0625 2.0625 C-4.68771484 1.80146484 -4.68771484 1.80146484 -3.28515625 1.53515625 C-1.04710156 1.22285012 -1.04710156 1.22285012 0 0 Z " fill="#0F88BC" transform="translate(602,430)"/>
<path d="M0 0 C-1.36125 0.7734375 -1.36125 0.7734375 -2.75 1.5625 C-7.98791227 5.78261889 -8.65897298 13.72872656 -10 20 C-10.33 20 -10.66 20 -11 20 C-11.51614483 13.16108103 -10.31482105 7.07717192 -7 1 C-4.0689508 -1.07518283 -3.50838807 -1.16946269 0 0 Z " fill="#8ED0E5" transform="translate(577,381)"/>
<path d="M0 0 C0.99 0.33 1.98 0.66 3 1 C1.8553125 2.3303125 1.8553125 2.3303125 0.6875 3.6875 C-3.04850074 8.82450102 -3.86557118 14.86670596 -5 21 C-5.33 21 -5.66 21 -6 21 C-6.35044272 14.69203097 -5.74090218 8.78634905 -3 3 C-2.01 2.67 -1.02 2.34 0 2 C0 1.34 0 0.68 0 0 Z " fill="#B9E6F1" transform="translate(591,410)"/>
<path d="M0 0 C0.33 0 0.66 0 1 0 C1 10.56 1 21.12 1 32 C-0.485 32.495 -0.485 32.495 -2 33 C-1.67 32.01 -1.34 31.02 -1 30 C-0.84854901 27.7174301 -0.75113021 25.43112294 -0.68359375 23.14453125 C-0.66281265 22.48289474 -0.64203156 21.82125824 -0.62062073 21.13957214 C-0.55535273 19.03065148 -0.49634656 16.92160865 -0.4375 14.8125 C-0.39429311 13.38084685 -0.35067812 11.94920596 -0.30664062 10.51757812 C-0.19969494 7.01184846 -0.09836359 3.50598214 0 0 Z " fill="#709E7A" transform="translate(346,566)"/>
<path d="M0 0 C0.495 0.33 0.99 0.66 1.5 1 C1.5 1.33 1.5 1.66 1.5 2 C-3.45 2 -8.4 2 -13.5 2 C-13.5 1.34 -13.5 0.68 -13.5 0 C-8.97258828 -1.50913724 -4.43573202 -1.77429281 0 0 Z " fill="#D4E2D8" transform="translate(787.5,564)"/>
<path d="M0 0 C1.485 0.99 1.485 0.99 3 2 C5.27912938 2.45394552 5.27912938 2.45394552 7.6875 2.625 C8.49574219 2.69976562 9.30398438 2.77453125 10.13671875 2.8515625 C10.75160156 2.90054687 11.36648438 2.94953125 12 3 C12 3.99 12 4.98 12 6 C10.37581255 6.08090971 8.75048255 6.13914995 7.125 6.1875 C6.22007812 6.22230469 5.31515625 6.25710938 4.3828125 6.29296875 C3.20332031 6.14794922 3.20332031 6.14794922 2 6 C0 3 0 3 0 0 Z " fill="#2694C1" transform="translate(647,401)"/>
<path d="M0 0 C0.99 0 1.98 0 3 0 C3 0.66 3 1.32 3 2 C4.65 2.33 6.3 2.66 8 3 C6 4 6 4 2 4 C1.67 10.27 1.34 16.54 1 23 C0.67 23 0.34 23 0 23 C0 15.41 0 7.82 0 0 Z " fill="#B7CEBB" transform="translate(696,611)"/>
<path d="M0 0 C0.66 0.33 1.32 0.66 2 1 C1.67 1.33 1.34 1.66 1 2 C5.0527516 2.98248524 8.83861737 3.08159574 13 3 C13 3.99 13 4.98 13 6 C8.38 6 3.76 6 -1 6 C-1 1 -1 1 0 0 Z " fill="#98AC99" transform="translate(664,667)"/>
<path d="M0 0 C3.3 0 6.6 0 10 0 C9.67 1.32 9.34 2.64 9 4 C6.03 3.67 3.06 3.34 0 3 C0 2.01 0 1.02 0 0 Z " fill="#0D83BE" transform="translate(610,402)"/>
<path d="M0 0 C3.3 0 6.6 0 10 0 C9.67 0.99 9.34 1.98 9 3 C5.7 3.33 2.4 3.66 -1 4 C-0.67 2.68 -0.34 1.36 0 0 Z " fill="#788F79" transform="translate(596,667)"/>
<path d="M0 0 C1.32 0 2.64 0 4 0 C4.66 1.32 5.32 2.64 6 4 C4.8553125 3.9690625 4.8553125 3.9690625 3.6875 3.9375 C0.89814214 3.87057159 0.89814214 3.87057159 -2 5 C-2.33 6.65 -2.66 8.3 -3 10 C-3.66 10 -4.32 10 -5 10 C-3.86475876 6.15764502 -2.8741331 2.8741331 0 0 Z " fill="#44A8CF" transform="translate(554,350)"/>
<path d="M0 0 C0.33 0.99 0.66 1.98 1 3 C0.67 3.33 0.34 3.66 0 4 C-0.21326403 9.6047709 -0.21326403 9.6047709 1 15 C0.01 15.33 -0.98 15.66 -2 16 C-3.71928489 12.56143022 -3.38974252 8.76751104 -3 5 C-1.5 1.9375 -1.5 1.9375 0 0 Z " fill="#148EC3" transform="translate(629,418)"/>
<path d="M0 0 C0.66 0 1.32 0 2 0 C2 1.32 2 2.64 2 4 C3.98 4 5.96 4 8 4 C8 4.33 8 4.66 8 5 C1 5 -6 5 -13 5 C-13 4.67 -13 4.34 -13 4 C-7.06 3.505 -7.06 3.505 -1 3 C-0.67 2.01 -0.34 1.02 0 0 Z " fill="#DDE1DD" transform="translate(464,692)"/>
<path d="M0 0 C1.32 0 2.64 0 4 0 C4 0.66 4 1.32 4 2 C4.99 2 5.98 2 7 2 C7.33 3.32 7.66 4.64 8 6 C7.01 6.66 6.02 7.32 5 8 C4.67 7.01 4.34 6.02 4 5 C3.34 5 2.68 5 2 5 C2 4.01 2 3.02 2 2 C1.34 2 0.68 2 0 2 C0 1.34 0 0.68 0 0 Z " fill="#718972" transform="translate(555,661)"/>
<path d="M0 0 C0.66 0 1.32 0 2 0 C2 1.98 2 3.96 2 6 C6.95 6 11.9 6 17 6 C17 6.33 17 6.66 17 7 C11.72 7 6.44 7 1 7 C0.67 5.68 0.34 4.36 0 3 C-0.66 2.67 -1.32 2.34 -2 2 C-1.34 1.34 -0.68 0.68 0 0 Z " fill="#9FBCA3" transform="translate(438,610)"/>
<path d="M0 0 C1.9375 0.125 1.9375 0.125 4 1 C5.25 3.5625 5.25 3.5625 6 6 C4.6078125 5.7215625 4.6078125 5.7215625 3.1875 5.4375 C-0.01343771 4.75876119 -0.01343771 4.75876119 -3 6 C-1.125 1.125 -1.125 1.125 0 0 Z " fill="#42A2CB" transform="translate(613,475)"/>
<path d="M0 0 C2.79828356 0.38597015 3.8205884 0.80136573 5.75 2.9375 C7 5 7 5 7 7 C6.1646875 6.505 6.1646875 6.505 5.3125 6 C2.69715478 4.8690399 0.8193354 4.84337026 -2 5 C-1.34 3.35 -0.68 1.7 0 0 Z " fill="#379AC6" transform="translate(535,320)"/>
<path d="M0 0 C0.125 2.375 0.125 2.375 0 5 C-0.66 5.66 -1.32 6.32 -2 7 C-2.16681109 10.08347826 -2.16681109 10.08347826 -2 13 C-2.66 13 -3.32 13 -4 13 C-4.08121924 11.39667209 -4.13929134 9.79215974 -4.1875 8.1875 C-4.22230469 7.29417969 -4.25710938 6.40085937 -4.29296875 5.48046875 C-4 3 -4 3 -2.55078125 1.17578125 C-1 0 -1 0 0 0 Z " fill="#0D83BB" transform="translate(591,419)"/>
<path d="M0 0 C0.66 0 1.32 0 2 0 C2.99 2.97 3.98 5.94 5 9 C4.34 9 3.68 9 3 9 C2.67 9.66 2.34 10.32 2 11 C0 3.375 0 3.375 0 0 Z " fill="#6FAD57" transform="translate(381,424)"/>
<path d="M0 0 C2.1875 -0.3125 2.1875 -0.3125 5 0 C7.8125 2.5 7.8125 2.5 10 5 C8.35 4.67 6.7 4.34 5 4 C4.67 4.66 4.34 5.32 4 6 C2.62437146 4.71034824 1.29233607 3.37310707 0 2 C0 1.34 0 0.68 0 0 Z " fill="#BAD7AE" transform="translate(404,395)"/>
<path d="M0 0 C0.33 0.99 0.66 1.98 1 3 C-2.3 3 -5.6 3 -9 3 C-9 2.34 -9 1.68 -9 1 C-6.04335481 -0.4783226 -3.25770263 -0.06032783 0 0 Z " fill="#778D78" transform="translate(426,667)"/>
<path d="M0 0 C1.32 0 2.64 0 4 0 C4 1.32 4 2.64 4 4 C6.64 4.66 9.28 5.32 12 6 C7.96395176 7.00901206 5.95682367 7.03221487 2 6 C0 3 0 3 0 0 Z " fill="#E0EDE2" transform="translate(479,579)"/>
<path d="M0 0 C1.32 0 2.64 0 4 0 C3.67 1.32 3.34 2.64 3 4 C2.34 4 1.68 4 1 4 C1.350625 5.0725 1.70125 6.145 2.0625 7.25 C3.23076923 11.92307692 3.23076923 11.92307692 2 15 C-0.10428384 9.87080814 -0.21755666 5.4389165 0 0 Z " fill="#7CB171" transform="translate(356,363)"/>
<path d="M0 0 C1.67542976 0.28604898 3.34385343 0.61781233 5 1 C5 1.99 5 2.98 5 4 C3.35 4.33 1.7 4.66 0 5 C-0.5625 3.0625 -0.5625 3.0625 -1 1 C-0.67 0.67 -0.34 0.34 0 0 Z " fill="#2B9AC9" transform="translate(498,321)"/>
<path d="M0 0 C0 2.64 0 5.28 0 8 C-1.32 7.34 -2.64 6.68 -4 6 C-4 4.35 -4 2.7 -4 1 C-2 0 -2 0 0 0 Z " fill="#6B836E" transform="translate(565,670)"/>
<path d="M0 0 C1.32 0.66 2.64 1.32 4 2 C4 2.66 4 3.32 4 4 C3.34 4 2.68 4 2 4 C1.67 4.66 1.34 5.32 1 6 C0.34 5.34 -0.32 4.68 -1 4 C-3.32275177 3.59952556 -5.65739357 3.2602896 -8 3 C-8 2.67 -8 2.34 -8 2 C-6.865625 1.855625 -5.73125 1.71125 -4.5625 1.5625 C-1.19222799 1.38828522 -1.19222799 1.38828522 0 0 Z " fill="#879D8A" transform="translate(606,668)"/>
<path d="M0 0 C0.66 0.66 1.32 1.32 2 2 C1.34 2.556875 0.68 3.11375 0 3.6875 C-2.25492211 5.84062308 -2.25492211 5.84062308 -2.25 8.75 C-2.1675 9.4925 -2.085 10.235 -2 11 C-3.5625 9.75 -3.5625 9.75 -5 8 C-4.90311287 4.99649894 -3.98152289 3.97984316 -1.9375 1.75 C-1.298125 1.1725 -0.65875 0.595 0 0 Z " fill="#D9E5DA" transform="translate(838,579)"/>
<path d="M0 0 C2.31 0.66 4.62 1.32 7 2 C7.0825 2.61875 7.165 3.2375 7.25 3.875 C7.81258459 6.18437567 7.81258459 6.18437567 10.0625 7.25 C10.701875 7.4975 11.34125 7.745 12 8 C8.21516391 8 7.22592069 6.89417485 4.3125 4.5625 C3.50425781 3.92441406 2.69601562 3.28632813 1.86328125 2.62890625 C1.24839844 2.09136719 0.63351562 1.55382812 0 1 C0 0.67 0 0.34 0 0 Z " fill="#ACD294" transform="translate(414,400)"/>
<path d="M0 0 C-0.33 0.99 -0.66 1.98 -1 3 C-3.64 3 -6.28 3 -9 3 C-6.38997624 -0.48003168 -4.1689578 -0.27793052 0 0 Z " fill="#768D78" transform="translate(603,689)"/>
<path d="M0 0 C4.31392226 0.4793247 6.16569547 1.7457985 9 5 C7.35 5.33 5.7 5.66 4 6 C4 4.68 4 3.36 4 2 C2.68 1.67 1.36 1.34 0 1 C0 0.67 0 0.34 0 0 Z " fill="#ADD58D" transform="translate(475,384)"/>
<path d="M0 0 C-0.33 0.99 -0.66 1.98 -1 3 C-3.97 3 -6.94 3 -10 3 C-10.33 2.34 -10.66 1.68 -11 1 C-9.54182203 0.83197949 -8.0834516 0.66562857 -6.625 0.5 C-5.81289063 0.4071875 -5.00078125 0.314375 -4.1640625 0.21875 C-2 0 -2 0 0 0 Z " fill="#1E8ABC" transform="translate(640,373)"/>
<path d="M0 0 C1.65 0.33 3.3 0.66 5 1 C5.33 2.32 5.66 3.64 6 5 C3.69 4.67 1.38 4.34 -1 4 C-0.67 2.68 -0.34 1.36 0 0 Z " fill="#3F9FCA" transform="translate(613,320)"/>
<path d="M0 0 C0.99 0 1.98 0 3 0 C3.66 1.98 4.32 3.96 5 6 C2.69 5.34 0.38 4.68 -2 4 C-1.34 2.68 -0.68 1.36 0 0 Z " fill="#B6CBBD" transform="translate(278,597)"/>
<path d="M0 0 C1.32 0.66 2.64 1.32 4 2 C3.67 3.32 3.34 4.64 3 6 C2.67 5.34 2.34 4.68 2 4 C1.01 3.67 0.02 3.34 -1 3 C-1.33 3.99 -1.66 4.98 -2 6 C-2.33 4.68 -2.66 3.36 -3 2 C-2.01 1.34 -1.02 0.68 0 0 Z " fill="#D2EBF3" transform="translate(614,438)"/>
<path d="M0 0 C4.7517398 0.43197635 6.92000054 1.32769295 10 5 C5.75354935 5 3.61475228 3.18249194 0 1 C0 0.67 0 0.34 0 0 Z " fill="#CDE5B9" transform="translate(484,389)"/>
<path d="M0 0 C3.24271506 0.5590888 4.93057424 1.4132178 7 4 C7 4.66 7 5.32 7 6 C2.32307692 4.52307692 2.32307692 4.52307692 0.6875 1.875 C0.460625 1.25625 0.23375 0.6375 0 0 Z " fill="#85B96C" transform="translate(379,377)"/>
<path d="M0 0 C1.32 0.66 2.64 1.32 4 2 C4 2.66 4 3.32 4 4 C1.69 4.66 -0.62 5.32 -3 6 C-1.125 1.125 -1.125 1.125 0 0 Z " fill="#50A9CE" transform="translate(633,349)"/>
<path d="M0 0 C1.875 0.5625 1.875 0.5625 4 2 C5.25 5.625 5.25 5.625 6 9 C3 8 3 8 1.3125 5.0625 C0 2 0 2 0 0 Z " fill="#1D93C1" transform="translate(502,324)"/>
<path d="M0 0 C0.33 0.66 0.66 1.32 1 2 C1.66 2 2.32 2 3 2 C3.66 4.97 4.32 7.94 5 11 C2.16439414 9.58219707 2.00641321 7.95214542 1 5 C0.63128912 3.34080104 0.28718326 1.6752357 0 0 Z " fill="#B7D1C1" transform="translate(246,597)"/>
<path d="M0 0 C1.32 0.33 2.64 0.66 4 1 C4 2.32 4 3.64 4 5 C2.68 5 1.36 5 0 5 C0 3.35 0 1.7 0 0 Z " fill="#248FBF" transform="translate(613,441)"/>
<path d="M0 0 C-0.33 0.99 -0.66 1.98 -1 3 C-2.98 3 -4.96 3 -7 3 C-7.33 2.34 -7.66 1.68 -8 1 C-5.07175348 0.02391783 -3.04386724 -0.08226668 0 0 Z " fill="#1086B9" transform="translate(620,343)"/>
<path d="M0 0 C1.64826111 2.96687001 2.44271087 5.65626525 3 9 C2.34 9 1.68 9 1 9 C-0.61949011 6.42786866 -1.04408751 5.32330841 -0.625 2.25 C-0.41875 1.5075 -0.2125 0.765 0 0 Z " fill="#77907B" transform="translate(501,686)"/>
<path d="M0 0 C1.32 0 2.64 0 4 0 C4 1.32 4 2.64 4 4 C1.03 3.505 1.03 3.505 -2 3 C-1.34 2.01 -0.68 1.02 0 0 Z " fill="#7D957E" transform="translate(666,667)"/>
<path d="M0 0 C0.66 0 1.32 0 2 0 C2 2.64 2 5.28 2 8 C1.67 8 1.34 8 1 8 C1 6.35 1 4.7 1 3 C-0.65 3.66 -2.3 4.32 -4 5 C-2.71937515 3.2925002 -1.38232443 1.62626404 0 0 Z " fill="#BFD1C5" transform="translate(344,609)"/>
<path d="M0 0 C0.33 0 0.66 0 1 0 C1.49230769 6.4 1.49230769 6.4 -1 9.4375 C-1.99 10.2109375 -1.99 10.2109375 -3 11 C-3.33 10.01 -3.66 9.02 -4 8 C-2.68 7.34 -1.36 6.68 0 6 C0 4.02 0 2.04 0 0 Z " fill="#2599CA" transform="translate(643,424)"/>
<path d="M0 0 C1.24546405 2.49092811 0.7767578 3.41080733 0 6 C-1.65 6.33 -3.3 6.66 -5 7 C-3.70700306 4.11562221 -2.34058637 2.12780579 0 0 Z " fill="#9AAF9D" transform="translate(501,666)"/>
<path d="M0 0 C1.32 0.33 2.64 0.66 4 1 C3.67 2.32 3.34 3.64 3 5 C2.01 5 1.02 5 0 5 C0 3.35 0 1.7 0 0 Z " fill="#728775" transform="translate(573,655)"/>
<path d="M0 0 C0.33 0.66 0.66 1.32 1 2 C-3.75 6.875 -3.75 6.875 -6 8 C-4.55746343 4.63408134 -2.66735273 2.48952921 0 0 Z " fill="#76A780" transform="translate(284,572)"/>
<path d="M0 0 C0.66 0.33 1.32 0.66 2 1 C-0.31 2.65 -2.62 4.3 -5 6 C-5 5.01 -5 4.02 -5 3 C-2.625 1.25 -2.625 1.25 0 0 Z " fill="#447E50" transform="translate(291,567)"/>
</svg>
